<svg width="101" height="26" viewBox="0 0 101 26" fill="none" xmlns="http://www.w3.org/2000/svg">
<g clip-path="url(#clip0_334_57)">
<path d="M29.2544 23.0609V2.78797C29.2544 2.29352 29.6808 1.86969 30.1782 1.86969H46.8056C47.7294 1.86969 48.0847 3.14116 47.1609 3.56499L37.8524 8.01514C37.0707 8.36833 37.2128 9.49849 37.9945 9.71044L46.5214 11.9708C47.3741 12.1828 47.4451 13.4543 46.5214 13.6661L37.8524 16.2797C37.0707 16.4916 36.9997 17.6218 37.7103 17.975L47.0188 22.3545C47.8715 22.7784 47.5872 24.0498 46.6635 24.0498H30.1071C29.6808 23.9792 29.2544 23.5553 29.2544 23.0609Z" fill="#EDFF8C" stroke="#284218" stroke-width="2" stroke-miterlimit="10"/>
<path d="M77.5728 23.1897V3.34051C77.5728 2.5635 78.4255 2.06904 79.065 2.42223L93.9164 10.3336C94.4845 10.6161 95.1238 10.4043 95.3376 9.76854L98.1088 2.49286C98.5344 1.4333 100.098 1.71585 100.098 2.84604V23.0484C100.098 23.8253 99.245 24.3198 98.6056 23.9666L83.8969 16.4084C83.3284 16.1259 82.6889 16.3378 82.4758 16.9029L79.6334 23.6135C79.1361 24.673 77.5728 24.3198 77.5728 23.1897Z" fill="#EDFF8C" stroke="#284218" stroke-width="2" stroke-miterlimit="10"/>
<path d="M0.901855 23.1897V3.34051C0.901855 2.5635 1.75455 2.06904 2.39406 2.42223L17.2451 10.3336C17.8135 10.6161 18.453 10.4043 18.6662 9.76854L21.4375 2.49286C21.9348 1.4333 23.4982 1.71585 23.4982 2.84604V23.0484C23.4982 23.8253 22.6454 24.3198 22.0059 23.9666L7.22597 16.4084C6.65751 16.1259 6.01799 16.3378 5.80482 16.9029L2.96253 23.6135C2.46512 24.673 0.901855 24.3198 0.901855 23.1897Z" fill="#EDFF8C" stroke="#284218" stroke-width="2" stroke-miterlimit="10"/>
<path d="M62.2948 24.604C68.7701 24.604 74.0193 19.3857 74.0193 12.9488C74.0193 6.51178 68.7701 1.29358 62.2948 1.29358C55.8196 1.29358 50.5703 6.51178 50.5703 12.9488C50.5703 19.3857 55.8196 24.604 62.2948 24.604Z" fill="#EDFF8C" stroke="#284218" stroke-width="2" stroke-miterlimit="10"/>
</g>
<defs>
<clipPath id="clip0_334_57">
<rect width="101" height="26" fill="white"/>
</clipPath>
</defs>
</svg>
