<svg width="121" height="35" viewBox="0 0 121 35" fill="none" xmlns="http://www.w3.org/2000/svg">
<path fill-rule="evenodd" clip-rule="evenodd" d="M2.68307 1.01479C2.21223 1.08346 1.65851 1.3153 1.27193 1.60569C0.589054 2.11861 0.13186 2.89404 0.0244208 3.72162C0.0027922 3.88799 -0.00398692 8.14055 0.00217592 17.666C0.0105691 30.6972 0.0135625 31.3803 0.0632173 31.5617C0.239797 32.2069 0.522818 32.7084 0.945618 33.1255C1.40099 33.5746 2.07433 33.9075 2.7047 33.995C3.01381 34.0379 30.0263 34.0391 30.3253 33.9962C30.9894 33.901 31.717 33.52 32.1677 33.0316C32.5812 32.5834 32.8406 32.0749 32.9698 31.459C33.0237 31.2023 33.0252 30.8118 33.0252 17.5046C33.0252 4.19739 33.0237 3.80687 32.9698 3.55015C32.9113 3.27124 32.7914 2.91711 32.6845 2.70742C32.3161 1.98455 31.6466 1.41 30.8575 1.13951C30.3713 0.97285 31.2625 0.982358 16.4736 0.986056C8.98427 0.987934 2.77853 1.00085 2.68307 1.01479ZM39.6429 2.49346V4.00461L41.7045 4.01216L43.7662 4.0197L43.7736 9.25077L43.781 14.4818H45.6885H47.5959V9.24344V4.00502H49.6502H51.7045V2.49366V0.9823H45.6737H39.6429V2.49346ZM56.1065 3.90299C54.1476 4.17163 52.5981 5.22013 51.7927 6.82188C51.1458 8.10851 51.0669 9.85191 51.5946 11.195C52.2319 12.8169 53.6294 13.985 55.4721 14.4361C56.1497 14.6019 56.5274 14.6424 57.3831 14.6409C58.2425 14.6394 58.6456 14.5962 59.284 14.4371C60.2375 14.1995 61.0946 13.7241 61.7092 13.0917L61.8388 12.9584L61.4116 12.5096C61.1765 12.2627 60.7405 11.8099 60.4426 11.5033L59.901 10.9459L59.8012 11.0269C59.0413 11.6433 58.3353 11.8716 57.3105 11.8324C56.2532 11.7919 55.509 11.3776 55.1115 10.6081C55.0489 10.487 54.9886 10.3451 54.9775 10.2926L54.9573 10.1972H58.7428H62.5282L62.5518 9.94042C62.5988 9.42794 62.5785 8.6285 62.5084 8.23097C62.241 6.71503 61.5131 5.57247 60.3031 4.7693C60.1248 4.65095 59.6403 4.39525 59.459 4.32382C58.9902 4.13905 58.5326 4.01142 58.0434 3.92893C57.6484 3.86231 56.514 3.84711 56.1065 3.90299ZM67.306 3.91649C66.2315 4.05166 65.2433 4.32464 64.485 4.69576C64.1295 4.86973 63.8359 5.05059 63.8458 5.08948C63.8493 5.10324 64.124 5.66421 64.4562 6.33604C64.8722 7.17712 65.0713 7.55094 65.0955 7.5363C65.1148 7.52459 65.2209 7.45683 65.3313 7.38572C65.7514 7.11494 66.234 6.92322 66.8759 6.77205C67.1915 6.69771 67.2597 6.69229 67.8893 6.69132C68.5073 6.69035 68.5853 6.69604 68.8137 6.75873C69.2926 6.89014 69.6471 7.12641 69.8558 7.45328C69.9646 7.62375 70.0697 7.9233 70.0947 8.13413L70.1122 8.28151L68.7072 8.29814C67.9345 8.3073 67.1438 8.32969 66.9501 8.34792C66.2261 8.416 65.4923 8.60235 64.9928 8.84508C64.5674 9.05177 64.0996 9.44414 63.8555 9.799C63.4644 10.3674 63.3045 11.1775 63.4294 11.958C63.6518 13.3485 64.6979 14.2916 66.3485 14.5899C66.7502 14.6625 67.7781 14.6614 68.1827 14.588C68.5206 14.5266 68.9678 14.3905 69.1805 14.2841C69.6094 14.0697 69.9888 13.7372 70.2274 13.3667L70.3691 13.1466V13.8142V14.4818H72.0712H73.7733L73.7733 11.3491C73.7733 9.45101 73.7615 8.09222 73.7434 7.90146C73.641 6.82162 73.278 5.93748 72.6765 5.30298C71.9702 4.55792 71.018 4.11622 69.7141 3.92878C69.1916 3.85368 67.8592 3.84687 67.306 3.91649ZM81.8644 3.91722C81.0329 4.0678 80.336 4.40012 79.7884 4.90712L79.584 5.09635V4.56537V4.03437H77.8378H76.0917V9.25811V14.4818H77.9259H79.76V11.7254C79.76 9.93112 79.771 8.89025 79.7914 8.74357C79.8746 8.14487 80.0271 7.78898 80.3323 7.48042C80.5819 7.22813 80.7819 7.11227 81.1082 7.03086C81.4289 6.95086 81.7608 6.95024 82.0617 7.02907C82.5768 7.16398 82.8768 7.49454 83.0725 8.14293L83.1477 8.39238L83.1572 11.4371L83.1666 14.4818H85.0143H86.862L86.8622 11.6866C86.8623 8.72042 86.8688 8.55974 87.0037 8.17087C87.2723 7.39664 87.8665 6.97143 88.6827 6.96955C89.4305 6.96785 89.9315 7.38197 90.1555 8.18695C90.2208 8.42164 90.2208 8.42275 90.23 11.4518L90.2392 14.4818H92.0885H93.9378L93.9263 11.173C93.9139 7.61096 93.9126 7.57888 93.7536 6.89569C93.4678 5.66697 92.7934 4.788 91.7486 4.28226C91.1513 3.99311 90.4911 3.85814 89.6755 3.8585C88.5846 3.85894 87.5806 4.17362 86.818 4.7541C86.6259 4.90031 86.2082 5.30119 86.1195 5.4245C86.0829 5.47524 86.0653 5.4606 85.8851 5.2299C85.3553 4.5514 84.6621 4.14853 83.6485 3.9301C83.2764 3.84993 82.2758 3.84268 81.8644 3.91722ZM16.6203 5.20933C17.485 5.47991 18.0821 6.19858 18.1547 7.05601L18.1757 7.3044L18.6392 7.58425C20.7391 8.85236 22.4174 10.6097 23.6548 12.8365C23.7 12.9178 23.7187 12.9265 23.8483 12.9265C24.1967 12.9265 24.7323 13.1327 25.0422 13.3861C25.5396 13.7929 25.8005 14.3459 25.8015 14.9954C25.8021 15.4344 25.6868 15.8077 25.4388 16.1693C25.2272 16.4779 20.7446 20.738 20.4872 20.8752C20.4416 20.8995 20.3709 20.9083 20.3059 20.8979L20.1992 20.8809L20.2099 20.9922C20.2247 21.1484 20.1268 21.2537 19.8273 21.4039C19.0784 21.7793 18.211 21.625 17.6402 21.0147C17.3453 20.6996 17.1781 20.3081 17.1388 19.8407C17.1253 19.6812 17.1055 19.6013 17.0752 19.5841C17.051 19.5704 16.8595 19.4647 16.6497 19.3492C16.2138 19.1092 15.6976 18.7875 15.3653 18.5487C15.2399 18.4587 15.1329 18.385 15.1274 18.385C15.122 18.385 14.9672 18.5599 14.7835 18.7738C13.7566 19.9695 11.5164 22.3675 9.67718 24.2397C8.22851 25.7143 8.10854 25.8308 7.93366 25.9316C7.2323 26.3361 6.50547 26.3528 5.79882 25.9808C5.52461 25.8364 5.14594 25.4456 4.99249 25.1486C4.81509 24.8053 4.74953 24.5399 4.74953 24.1651C4.74953 23.657 4.87431 23.2796 5.16159 22.9191C5.50832 22.4839 9.09873 19.0293 10.9431 17.3563C11.3917 16.9494 12.3805 16.0736 12.5533 15.9301C12.56 15.9245 12.4862 15.8176 12.3894 15.6925C12.1635 15.4003 11.7884 14.8455 11.5512 14.4525L11.3652 14.1444L11.0979 14.1237C10.6249 14.0872 10.195 13.8968 9.84308 13.5682C9.07625 12.852 8.93257 11.7306 9.49482 10.8501C9.61864 10.6563 9.82958 10.4335 11.2643 8.98096C13.9502 6.26188 14.6521 5.57018 14.8372 5.4601C15.0653 5.32434 15.3251 5.21772 15.5597 5.16361C15.8212 5.1033 16.3549 5.12631 16.6203 5.20933ZM57.4735 6.51198C58.0319 6.61026 58.4947 6.91424 58.8034 7.38546C58.9302 7.57903 59.0787 7.93275 59.1123 8.12092L59.1319 8.23097H57.0052H54.8785L54.9385 8.01821C55.2571 6.89014 56.2546 6.29745 57.4735 6.51198ZM15.8124 6.53783C15.7392 6.55838 15.6468 6.59755 15.6069 6.62485C15.5671 6.65217 14.8808 7.32524 14.0818 8.1206C13.2829 8.91593 12.1958 9.99451 11.6661 10.5174C11.1364 11.0403 10.6713 11.5098 10.6325 11.5607C10.5214 11.7063 10.4609 11.9867 10.5005 12.1717C10.5616 12.4565 10.7305 12.6699 10.9832 12.7817C11.1415 12.8517 11.337 12.8645 11.6496 12.8255C11.8297 12.8031 11.8547 12.8071 11.9909 12.8813C12.1672 12.9772 12.2027 13.023 12.4237 13.44C13.3322 15.1536 14.5764 16.6262 16.1028 17.7943C16.4666 18.0726 17.1993 18.557 17.6421 18.8117C17.9339 18.9797 17.9984 19.0299 18.0488 19.1288C18.0966 19.2225 18.1049 19.2766 18.0895 19.3953C18.0369 19.8002 18.0366 19.9186 18.0878 20.0876C18.1478 20.2858 18.3002 20.4996 18.478 20.6352C18.6264 20.7485 18.9331 20.8501 19.1264 20.8501C19.292 20.8501 19.573 20.7805 19.6736 20.7145C19.7249 20.681 19.7882 20.6707 19.8856 20.68L20.0246 20.6934L20.0146 20.5551C20.0048 20.4183 20.0074 20.4138 20.2615 20.1272C20.5967 19.7492 21.8977 18.3496 23.6782 16.4514C24.106 15.9954 24.4945 15.5554 24.5417 15.4737C24.6602 15.2682 24.6805 14.9523 24.5904 14.7136C24.5073 14.4935 24.3134 14.2988 24.0951 14.2165C23.9245 14.152 23.8402 14.1509 23.3791 14.2067C23.3017 14.2161 23.194 14.2077 23.1332 14.1877C23.0232 14.1514 22.7978 13.9703 22.7978 13.9182C22.7978 13.9025 22.6907 13.7027 22.5597 13.4741C21.3516 11.3654 19.537 9.60569 17.4127 8.48282C16.9814 8.25483 16.9057 8.19373 16.8183 8.0028C16.7514 7.85683 16.7467 7.82205 16.7683 7.63282C16.8203 7.17507 16.7654 6.93167 16.567 6.73965C16.3758 6.55459 16.0565 6.46922 15.8124 6.53783ZM16.2757 8.63895C16.4388 8.76784 16.6056 8.95865 16.6056 9.01617C16.6056 9.08115 16.4386 9.38926 16.266 9.64285C15.966 10.0833 15.6331 10.4693 15.0522 11.0501C14.3105 11.7915 13.6971 12.2804 13.1835 12.5393C13.0144 12.6246 13.0003 12.627 12.9341 12.5829C12.8183 12.5058 12.6441 12.3312 12.58 12.228L12.5198 12.1312L12.61 11.9492C13.1179 10.9239 14.8304 9.18838 15.8837 8.6315C15.9951 8.57263 16.0963 8.52444 16.1085 8.52444C16.1208 8.52444 16.196 8.57597 16.2757 8.63895ZM70.1049 10.6922V11.1578L69.9972 11.3745C69.8489 11.6726 69.5518 11.9663 69.2539 12.1093C68.9348 12.2624 68.655 12.3232 68.2708 12.3228C67.6586 12.3222 67.2457 12.116 67.0393 11.7082C66.9685 11.5683 66.956 11.508 66.9552 11.3033C66.9541 11.033 66.994 10.8839 67.1146 10.7073C67.2671 10.484 67.632 10.3063 68.036 10.2585C68.149 10.2451 68.6607 10.2325 69.1732 10.2304L70.1049 10.2266V10.6922ZM22.3439 14.6918C22.5566 14.9267 22.5486 14.894 22.444 15.1025C21.9444 16.0982 20.2858 17.7905 19.233 18.3787C19.1196 18.4421 18.9992 18.5026 18.9655 18.5133C18.8877 18.5379 18.674 18.3796 18.5295 18.1904C18.4283 18.0578 18.4275 18.0546 18.4711 17.9491C18.8554 17.0181 20.7628 15.0624 21.7911 14.545L22.0196 14.43L22.1372 14.5118C22.202 14.5568 22.2949 14.6378 22.3439 14.6918ZM12.6906 16.932C11.4384 18.3683 9.28628 20.656 6.96175 23.0218C6.32692 23.6679 6.21977 23.7899 6.17763 23.9147C6.15078 23.9943 6.12883 24.0974 6.12883 24.1439C6.12883 24.4062 6.28701 24.6669 6.52081 24.7899C6.68331 24.8753 6.97824 24.8784 7.13143 24.7962C7.24049 24.7377 7.53393 24.462 8.56462 23.4496C10.4605 21.5873 12.4898 19.6832 13.7866 18.5498C14.0842 18.2897 14.3681 18.0409 14.4175 17.997L14.5074 17.9172L14.3606 17.7943C14.2799 17.7266 13.9528 17.4113 13.6336 17.0936L13.0534 16.5159L12.6906 16.932ZM27.3401 17.7571C27.418 17.7727 27.4436 17.8064 27.5468 18.0286C27.7243 18.4107 27.7243 18.41 27.5751 18.5939C27.1341 19.1374 26.0677 19.5716 25.4684 19.4517C25.3841 19.4349 25.3617 19.4079 25.276 19.2197C25.1105 18.8567 25.0977 18.7886 25.1723 18.668C25.4979 18.1412 26.7113 17.6314 27.3401 17.7571ZM116.532 26.6021V33.7627H118.366H120.2V26.6021V19.4415H118.366H116.532V26.6021ZM46.6128 20.0032C43.93 20.118 41.699 21.4153 40.488 23.5647C40.1267 24.206 39.8791 24.91 39.7295 25.7217C39.6525 26.1391 39.6184 27.2848 39.6676 27.8053C39.8123 29.3401 40.4623 30.7486 41.5345 31.851C42.6772 33.0258 44.1117 33.7173 45.9378 33.9734C46.2892 34.0227 47.7819 34.023 48.1535 33.9738C48.4947 33.9287 48.9649 33.8398 49.2814 33.7607C50.2512 33.5183 51.3512 32.9431 52.0741 32.3006C52.363 32.0439 52.8514 31.5258 52.8466 31.4813C52.8452 31.469 52.3009 30.9694 51.6371 30.371L50.4301 29.283L50.1208 29.5972C49.4959 30.2322 48.8657 30.5927 48.0655 30.7732C47.6617 30.8642 46.8529 30.872 46.4367 30.7888C45.051 30.5119 44.0621 29.6169 43.6675 28.2824C43.5432 27.8622 43.5017 27.5317 43.5045 26.9836C43.5073 26.4154 43.5583 26.0722 43.7075 25.6168C44.1095 24.3898 44.9859 23.5896 46.2796 23.2684C46.5913 23.1911 46.6526 23.1857 47.2291 23.1852C47.8154 23.1846 47.861 23.1887 48.1682 23.2694C48.9476 23.474 49.4819 23.7882 50.1049 24.4081C50.3149 24.617 50.4393 24.7206 50.4611 24.7045C50.561 24.631 52.849 22.5445 52.849 22.5269C52.849 22.5154 52.6938 22.3423 52.5042 22.1422C51.8639 21.4667 51.202 21.0047 50.3305 20.6253C49.9658 20.4665 49.4028 20.281 49.0937 20.2177C48.972 20.1929 48.8263 20.1603 48.7698 20.1455C48.3894 20.0455 47.3013 19.9738 46.6128 20.0032ZM27.5408 20.3639C27.7695 20.4041 28.089 20.5304 28.2123 20.6294C28.2629 20.67 28.2722 20.7176 28.2793 20.976C28.2849 21.1782 28.2753 21.2984 28.2499 21.3456C28.2025 21.4338 28.0028 21.5385 27.7243 21.6212C27.4274 21.7093 26.6482 21.7152 26.3341 21.6317C26.0564 21.5579 25.7931 21.4164 25.7567 21.3214C25.7409 21.2801 25.7323 21.1163 25.7375 20.9573C25.7469 20.6772 25.7498 20.6663 25.8342 20.5991C25.9404 20.5144 26.2147 20.4093 26.4515 20.3624C26.6991 20.3135 27.2586 20.3142 27.5408 20.3639ZM26.0997 22.5783C26.5549 22.6722 26.9907 22.8777 27.3325 23.1596C27.5071 23.3037 27.6988 23.5373 27.6988 23.6062C27.6988 23.6503 27.4724 24.1696 27.4384 24.2037C27.3841 24.258 27.1541 24.2784 26.8966 24.2518C26.2808 24.1881 25.5223 23.7979 25.2199 23.3893C25.0912 23.2153 25.0933 23.186 25.2601 22.83C25.3608 22.6151 25.3873 22.5811 25.4731 22.5564C25.6259 22.5124 25.8123 22.5189 26.0997 22.5783ZM58.5276 23.1597C58.266 23.1835 57.6869 23.2935 57.3853 23.3767C56.7829 23.5428 56.2422 23.7851 55.7265 24.12C53.9738 25.2583 53.103 27.314 53.4631 29.4634C53.6447 30.5473 54.132 31.4948 54.8928 32.2429C55.6672 33.0045 56.5402 33.4835 57.6421 33.7515C58.063 33.8538 58.811 33.9388 59.289 33.9386C60.9448 33.9379 62.4061 33.4122 63.5268 32.4141C64.0681 31.932 64.6149 31.1188 64.8597 30.4319C65.2237 29.4105 65.2828 28.1639 65.0168 27.1149C64.4679 24.9499 62.605 23.4514 60.1123 23.1695C59.8678 23.1419 58.7967 23.1352 58.5276 23.1597ZM86.3778 23.1572C85.3861 23.2993 84.5962 23.6407 83.945 24.2086L83.7232 24.4021L83.7152 23.8513L83.7072 23.3006H81.9611H80.2149L80.2075 28.5316L80.2001 33.7627H82.0325H83.8649L83.8764 30.9821C83.8876 28.2566 83.8891 28.1959 83.9516 27.9185C84.0994 27.2619 84.3458 26.8721 84.8028 26.5719C84.9278 26.4898 85.1322 26.3896 85.2626 26.3464C85.4741 26.2765 85.541 26.2688 85.9376 26.2684C86.3163 26.268 86.4042 26.277 86.567 26.333C87.0967 26.5149 87.3922 26.8577 87.572 27.4986C87.6372 27.7312 87.6374 27.7416 87.6532 30.74L87.669 33.7481L89.4959 33.7556L91.3227 33.7632L91.3222 30.4834C91.3219 28.5363 91.3099 27.0904 91.2927 26.9249C91.2274 26.2964 91.0875 25.7863 90.8373 25.2641C90.4877 24.5344 89.8605 23.9168 89.1095 23.5628C88.7718 23.4036 88.5592 23.3329 88.1296 23.2368C87.8242 23.1685 87.7137 23.1592 87.1261 23.1523C86.7629 23.1481 86.4262 23.1503 86.3778 23.1572ZM97.2361 23.1568C97.1877 23.1635 96.9962 23.1893 96.8106 23.2143C95.4755 23.3937 94.2791 23.9736 93.6732 24.7352C93.2001 25.3296 93.0107 25.8731 93.0123 26.6314C93.0133 27.1095 93.0642 27.4135 93.2048 27.7802C93.4627 28.453 94.1079 29.0427 94.9169 29.3452C95.3396 29.5032 96.1128 29.6703 96.9573 29.786C97.6774 29.8847 98.4279 30.0203 98.6666 30.0948C99.0131 30.2029 99.158 30.348 99.1582 30.5869C99.1587 31.1571 98.4122 31.3827 96.9052 31.2677C95.9781 31.197 94.8209 30.8627 94.1074 30.4594C94.0092 30.4039 93.919 30.3585 93.9068 30.3585C93.8947 30.3585 93.802 30.5467 93.701 30.7767C93.6 31.0067 93.4013 31.459 93.2595 31.7818C93.1176 32.1046 92.9552 32.4744 92.8985 32.6035C92.8036 32.8195 92.7992 32.8415 92.844 32.8786C92.968 32.9811 93.6977 33.3012 94.0813 33.4214C95.5446 33.8797 97.1076 34.0336 98.6007 33.8663C99.6168 33.7524 100.501 33.4596 101.191 33.0085C101.456 32.8351 101.96 32.3387 102.108 32.1046C102.275 31.8418 102.432 31.4899 102.508 31.2095C102.598 30.8743 102.606 30.1191 102.522 29.7569C102.374 29.1179 102.072 28.6538 101.543 28.2561C101.296 28.0698 100.915 27.8603 100.671 27.7763C100.284 27.6432 99.5315 27.4708 98.8208 27.3522C97.0306 27.0537 96.749 26.9812 96.5496 26.7674C96.4747 26.6871 96.4348 26.4654 96.4699 26.3254C96.5209 26.1225 96.832 25.9137 97.226 25.8181C97.5342 25.7432 98.6583 25.7433 99.0996 25.8182C99.7146 25.9227 100.206 26.0768 100.765 26.3402L101.124 26.5096L101.178 26.3871C101.208 26.3197 101.362 25.9741 101.519 25.619C101.677 25.2639 101.897 24.7697 102.008 24.5208C102.119 24.2719 102.21 24.0526 102.21 24.0334C102.21 23.932 101.108 23.5227 100.471 23.388C99.595 23.2025 99.2107 23.1621 98.2339 23.1531C97.7335 23.1485 97.2845 23.1502 97.2361 23.1568ZM108.505 23.1595C108.323 23.1758 107.766 23.2824 107.522 23.3477C106.522 23.6155 105.651 24.1243 104.954 24.8463C104.217 25.6103 103.779 26.4758 103.583 27.5552C103.531 27.8431 103.519 28.0188 103.519 28.5096C103.519 29.1649 103.571 29.5618 103.722 30.0657C104.152 31.5011 105.095 32.5949 106.489 33.2732C107.167 33.6028 107.8 33.7781 108.696 33.8838C109.556 33.9852 110.626 33.9321 111.423 33.7487C112.386 33.5269 113.22 33.0927 113.857 32.4811L114.107 32.2414L113.507 31.6171C113.177 31.2737 112.74 30.8203 112.536 30.6096L112.164 30.2264L112.081 30.2914C111.59 30.6741 111.148 30.9067 110.682 31.0279C110.407 31.0995 110.336 31.1056 109.782 31.1062C109.221 31.1068 109.16 31.1015 108.877 31.0273C108.352 30.8899 107.885 30.6085 107.612 30.2653C107.498 30.1224 107.255 29.6646 107.214 29.5148L107.195 29.4487H110.994H114.793L114.814 29.1773C114.839 28.8577 114.839 27.9959 114.813 27.8058C114.744 27.2869 114.603 26.7197 114.449 26.338C114.079 25.4169 113.33 24.5276 112.48 23.9987C111.784 23.5658 110.899 23.2662 110.031 23.1692C109.787 23.1418 108.775 23.1354 108.505 23.1595ZM66.8298 23.327C66.8211 23.3498 66.8193 24.7992 66.8258 26.548C66.8362 29.3224 66.844 29.7762 66.8875 30.109C67.001 30.9787 67.2297 31.6383 67.6269 32.2413C67.8047 32.5113 68.2597 32.9662 68.5537 33.1678C69.5976 33.8838 71.1208 34.1225 72.4491 33.7783C72.6625 33.723 73.1241 33.5573 73.2744 33.4819C73.4975 33.3702 73.9458 33.0551 74.1476 32.8683L74.3602 32.6714V33.2173V33.7632L76.1137 33.7556L77.8672 33.7481V28.5243V23.3006H76.033H74.1988L74.1822 26.1472C74.1639 29.2816 74.1702 29.1751 73.9771 29.6388C73.6658 30.3866 73.0454 30.7982 72.2326 30.7961C71.4342 30.7941 70.902 30.4258 70.6672 29.7129C70.5344 29.3097 70.5362 29.3505 70.5183 26.2646L70.5011 23.3006L68.6735 23.293C67.1203 23.2866 66.8434 23.2917 66.8298 23.327ZM22.4824 23.4158C22.7344 23.5057 22.7566 23.5396 23.2232 24.5426L23.6605 25.4826L24.3957 25.4929C25.2294 25.5046 25.3042 25.5206 25.4803 25.7264C25.6554 25.931 25.6574 25.9532 25.6543 27.7258C25.6513 29.5279 25.6542 29.5003 25.4418 29.6922C25.3807 29.7474 25.2687 29.8163 25.1929 29.8452C25.062 29.8952 24.8629 29.8969 21.2339 29.8794C16.1644 29.8549 11.6657 29.7764 11.3976 29.7077C11.251 29.6701 11.0753 29.4976 11.035 29.3515C11.0064 29.2479 11.0235 28.5683 11.1059 26.5372C11.128 25.9938 11.1511 25.9188 11.3303 25.8096C11.4501 25.7365 11.5218 25.7367 12.2781 25.8119C12.9109 25.8749 12.9972 25.8974 13.1543 26.0405L13.2391 26.1179L13.2188 26.0445C13.146 25.7828 13.1602 25.7196 13.5006 24.7826C13.8649 23.7798 13.9282 23.6634 14.1371 23.6122C14.3247 23.5663 17.5867 23.4561 20.2447 23.4058C22.1103 23.3704 22.3585 23.3716 22.4824 23.4158ZM14.2902 24.9284C13.9165 25.6607 13.5666 26.2843 13.5125 26.3146C13.4773 26.3343 13.4412 26.3288 13.3913 26.2961C13.3212 26.2501 13.3204 26.2506 13.3367 26.332C13.3469 26.3833 13.3383 26.427 13.3138 26.4473C13.2748 26.4797 12.4229 26.5727 12.165 26.5727C12.0913 26.5727 12.025 26.5826 12.0177 26.5948C11.9978 26.6279 12.0686 28.5899 12.0906 28.6118C12.1011 28.6223 12.9991 28.6099 14.0862 28.5844C15.7712 28.5447 21.4967 28.4824 23.6122 28.4808L24.2652 28.4803V27.6759V26.8715L23.6856 26.8606C22.8765 26.8452 22.7876 26.7987 22.5536 26.2682C22.4815 26.1048 22.3273 25.7532 22.2108 25.4869C22.0944 25.2206 21.9664 24.9282 21.9264 24.8372L21.8537 24.6718L20.9831 24.6535C17.7565 24.5858 16.083 24.5397 14.7205 24.4811L14.5228 24.4726L14.2902 24.9284ZM109.775 25.7936C110.21 25.8852 110.522 26.0526 110.818 26.3548C111.086 26.6266 111.302 27.0345 111.381 27.4165L111.401 27.5118H109.271C108.099 27.5118 107.141 27.5076 107.141 27.5023C107.141 27.4971 107.173 27.3848 107.213 27.2527C107.433 26.516 107.974 25.9867 108.686 25.8119C108.971 25.7418 109.488 25.7332 109.775 25.7936ZM59.7553 26.108C60.373 26.2024 60.9497 26.6547 61.2272 27.2624C61.2788 27.3754 61.3528 27.5933 61.3916 27.7466C61.453 27.9888 61.4621 28.0909 61.4608 28.5243C61.4596 28.9444 61.4485 29.067 61.391 29.3004C61.1885 30.1219 60.6845 30.6848 59.9387 30.9227C59.6873 31.0029 59.0984 31.025 58.8159 30.9649C58.1377 30.8207 57.614 30.3942 57.3326 29.7569C57.1558 29.3565 57.1188 29.1354 57.1215 28.495C57.1239 27.9443 57.129 27.8918 57.2038 27.6453C57.3277 27.2372 57.4936 26.9457 57.7494 26.687C58.1496 26.2821 58.4684 26.1396 59.1439 26.0638C59.2559 26.0513 59.4987 26.0688 59.7553 26.108Z" fill="#0383D0"/>
</svg>
