<svg width="174" height="48" viewBox="0 0 174 48" fill="none" xmlns="http://www.w3.org/2000/svg">
<path fill-rule="evenodd" clip-rule="evenodd" d="M4.4869 0.120976C3.80923 0.219813 3.01229 0.553493 2.45589 0.971438C1.47305 1.70967 0.815025 2.82573 0.660392 4.01684C0.629263 4.25628 0.619506 10.3769 0.628376 24.0865C0.640456 42.8419 0.644764 43.8251 0.716231 44.0862C0.970377 45.0147 1.37772 45.7366 1.98624 46.3368C2.64165 46.9833 3.61076 47.4623 4.51803 47.5883C4.96292 47.65 43.8411 47.6518 44.2715 47.5901C45.2272 47.453 46.2745 46.9047 46.9231 46.2017C47.5184 45.5567 47.8917 44.8248 48.0776 43.9383C48.1551 43.5689 48.1574 43.0068 48.1574 23.8542C48.1574 4.7016 48.1551 4.13954 48.0776 3.77004C47.9934 3.36861 47.8209 2.85893 47.6671 2.55714C47.1368 1.51673 46.1732 0.689795 45.0375 0.300488C44.3377 0.0606181 45.6203 0.0743032 24.3352 0.0796252C13.556 0.0823284 4.6243 0.100913 4.4869 0.120976ZM57.682 2.24918V4.42414L60.6492 4.43499L63.6165 4.44585L63.6272 11.9748L63.6378 19.5037H66.3832H69.1285V11.9642V4.42473H72.0852H75.0418V2.24947V0.0742188H66.3619H57.682V2.24918ZM81.3775 4.27787C78.5582 4.66451 76.328 6.17359 75.1689 8.47894C74.2378 10.3307 74.1241 12.84 74.8837 14.773C75.801 17.1074 77.8123 18.7886 80.4645 19.4378C81.4398 19.6765 81.9833 19.7348 83.2149 19.7326C84.4519 19.7304 85.0319 19.6682 85.9508 19.4392C87.3232 19.0973 88.5567 18.413 89.4414 17.5029L89.6279 17.311L89.0129 16.665C88.6747 16.3097 88.0471 15.658 87.6184 15.2168L86.8389 14.4146L86.6953 14.531C85.6015 15.4183 84.5854 15.7469 83.1104 15.6904C81.5886 15.6321 80.5176 15.0358 79.9454 13.9283C79.8554 13.754 79.7686 13.5497 79.7526 13.4742L79.7235 13.3369H85.1718H90.62L90.654 12.9674C90.7217 12.2298 90.6925 11.0792 90.5916 10.507C90.2066 8.32515 89.159 6.6807 87.4176 5.52473C87.1609 5.35439 86.4637 4.98637 86.2027 4.88356C85.528 4.61763 84.8694 4.43394 84.1652 4.31521C83.5967 4.21933 81.964 4.19745 81.3775 4.27787ZM97.4965 4.2973C95.9502 4.49185 94.5279 4.88474 93.4365 5.41888C92.9248 5.66927 92.5022 5.92958 92.5164 5.98555C92.5215 6.00536 92.9169 6.81274 93.395 7.77969C93.9937 8.99023 94.2802 9.52826 94.3151 9.50718C94.3429 9.49033 94.4956 9.3928 94.6544 9.29046C95.2591 8.90073 95.9537 8.62479 96.8775 8.40722C97.3318 8.30023 97.4299 8.29242 98.3361 8.29102C99.2256 8.28963 99.3378 8.29782 99.6666 8.38804C100.356 8.57719 100.866 8.91724 101.166 9.38769C101.323 9.63305 101.474 10.0642 101.51 10.3676L101.535 10.5797L99.5134 10.6037C98.4012 10.6169 97.2632 10.6491 96.9845 10.6753C95.9423 10.7733 94.8863 11.0415 94.1673 11.3909C93.5551 11.6883 92.8818 12.2531 92.5304 12.7638C91.9675 13.582 91.7374 14.7479 91.9171 15.8712C92.2373 17.8725 93.7428 19.2298 96.1186 19.6592C96.6967 19.7637 98.176 19.7621 98.7584 19.6564C99.2448 19.5681 99.8884 19.3722 100.195 19.2191C100.812 18.9105 101.358 18.4319 101.701 17.8986L101.905 17.5819V18.5428V19.5037H104.355H106.805L106.805 14.9948C106.805 12.263 106.788 10.3073 106.762 10.0327C106.614 8.47856 106.092 7.20606 105.226 6.29283C104.21 5.22049 102.839 4.58477 100.962 4.315C100.211 4.20691 98.2929 4.19711 97.4965 4.2973ZM118.45 4.29835C117.253 4.51508 116.25 4.99338 115.462 5.72308L115.168 5.99543V5.23122V4.46697H112.655H110.142V11.9853V19.5037H112.781H115.421V15.5364C115.421 12.954 115.437 11.4559 115.466 11.2448C115.586 10.3831 115.806 9.87085 116.245 9.42676C116.604 9.06364 116.892 8.89689 117.362 8.77972C117.823 8.66458 118.301 8.66369 118.734 8.77714C119.475 8.97131 119.907 9.44708 120.189 10.3803L120.297 10.7393L120.311 15.1215L120.324 19.5037H122.984H125.643L125.643 15.4805C125.643 11.2114 125.653 10.9802 125.847 10.4205C126.233 9.30617 127.089 8.69419 128.263 8.69148C129.34 8.68903 130.061 9.28505 130.383 10.4436C130.477 10.7814 130.477 10.783 130.49 15.1426L130.504 19.5037H133.165H135.827L135.81 14.7414C135.793 9.61464 135.791 9.56847 135.562 8.58517C135.15 6.81671 134.18 5.55164 132.676 4.82375C131.816 4.40758 130.866 4.21333 129.692 4.21384C128.122 4.21447 126.677 4.66739 125.58 5.50285C125.303 5.71328 124.702 6.29025 124.574 6.46774C124.522 6.54077 124.496 6.51969 124.237 6.18766C123.474 5.21112 122.477 4.63127 121.018 4.3169C120.482 4.2015 119.042 4.19107 118.45 4.29835ZM24.5463 6.15805C25.7908 6.54748 26.6503 7.58185 26.7547 8.81592L26.785 9.17342L27.452 9.5762C30.4744 11.4013 32.8898 13.9307 34.6709 17.1356C34.736 17.2526 34.7628 17.2651 34.9493 17.2651C35.4508 17.2651 36.2217 17.5618 36.6676 17.9266C37.3836 18.5121 37.7591 19.308 37.7604 20.2428C37.7614 20.8747 37.5954 21.4119 37.2385 21.9324C36.9339 22.3765 30.4823 28.5079 30.1117 28.7054C30.0462 28.7404 29.9444 28.7531 29.8508 28.7382L29.6973 28.7136L29.7126 28.8739C29.7341 29.0986 29.5931 29.2502 29.1621 29.4663C28.0842 30.0067 26.8358 29.7846 26.0142 28.9062C25.5898 28.4526 25.3492 27.8893 25.2925 27.2165C25.2731 26.9869 25.2447 26.8719 25.201 26.8472C25.1662 26.8275 24.8906 26.6754 24.5886 26.5091C23.9613 26.1637 23.2183 25.7006 22.74 25.357C22.5596 25.2274 22.4055 25.1213 22.3977 25.1213C22.3898 25.1213 22.1671 25.3732 21.9027 25.681C20.4247 27.4019 17.2004 30.8533 14.5533 33.5478C12.4683 35.6702 12.2956 35.8378 12.0439 35.983C11.0345 36.5651 9.98835 36.5892 8.9713 36.0537C8.57663 35.846 8.03164 35.2835 7.81077 34.856C7.55544 34.3619 7.46108 33.98 7.46108 33.4404C7.46108 32.7092 7.64068 32.166 8.05415 31.6471C8.55319 31.0207 13.7208 26.0488 16.3754 23.6409C17.021 23.0552 18.4441 21.7947 18.6928 21.5881C18.7024 21.5801 18.5963 21.4262 18.457 21.2461C18.1318 20.8256 17.5919 20.0271 17.2506 19.4614L16.9829 19.0179L16.5981 18.9882C15.9174 18.9357 15.2986 18.6617 14.7921 18.1886C13.6884 17.158 13.4816 15.544 14.2908 14.2767C14.469 13.9977 14.7726 13.677 16.8377 11.5864C20.7034 7.67296 21.7136 6.67741 21.9799 6.51897C22.3082 6.32358 22.6822 6.17013 23.0198 6.09224C23.3962 6.00544 24.1644 6.03856 24.5463 6.15805ZM83.3451 8.03291C84.1488 8.17436 84.8148 8.61186 85.2591 9.29008C85.4416 9.56868 85.6554 10.0778 85.7036 10.3486L85.7319 10.507H82.6709H79.61L79.6965 10.2008C80.155 8.57719 81.5907 7.72415 83.3451 8.03291ZM23.3835 8.07012C23.2782 8.09969 23.1452 8.15607 23.0878 8.19535C23.0305 8.23468 22.0427 9.20341 20.8928 10.3481C19.7428 11.4928 18.1783 13.0452 17.4159 13.7978C16.6535 14.5504 15.9841 15.2261 15.9282 15.2993C15.7684 15.5089 15.6812 15.9125 15.7383 16.1788C15.8262 16.5886 16.0693 16.8958 16.433 17.0567C16.6609 17.1574 16.9422 17.1759 17.3921 17.1198C17.6513 17.0875 17.6873 17.0933 17.8834 17.2001C18.1371 17.3381 18.1881 17.4041 18.5063 18.0042C19.8138 20.4705 21.6046 22.5899 23.8016 24.2711C24.3251 24.6718 25.3797 25.3689 26.0169 25.7356C26.437 25.9772 26.5297 26.0496 26.6024 26.1919C26.6712 26.3268 26.683 26.4046 26.6609 26.5754C26.5852 27.1582 26.5848 27.3286 26.6585 27.5719C26.7448 27.8571 26.9641 28.1649 27.22 28.3601C27.4337 28.5231 27.8751 28.6693 28.1533 28.6693C28.3916 28.6693 28.796 28.5691 28.9409 28.4742C29.0147 28.4259 29.1058 28.411 29.246 28.4246L29.4459 28.4438L29.4316 28.2448C29.4175 28.0478 29.4212 28.0413 29.7869 27.6289C30.2694 27.0848 32.1419 25.0704 34.7046 22.3384C35.3202 21.6821 35.8794 21.0489 35.9473 20.9312C36.1179 20.6355 36.147 20.1808 36.0174 19.8373C35.8978 19.5205 35.6187 19.2403 35.3046 19.1217C35.059 19.029 34.9376 19.0274 34.274 19.1077C34.1626 19.1212 34.0076 19.1092 33.92 19.0803C33.7618 19.028 33.4374 18.7674 33.4374 18.6925C33.4374 18.6699 33.2832 18.3822 33.0948 18.0533C31.3559 15.0183 28.7442 12.4856 25.6868 10.8695C25.066 10.5413 24.9571 10.4534 24.8312 10.1786C24.7351 9.9685 24.7283 9.91845 24.7593 9.6461C24.8342 8.98727 24.7552 8.63695 24.4696 8.36059C24.1944 8.09424 23.7349 7.97137 23.3835 8.07012ZM24.0503 11.0942C24.285 11.2797 24.5252 11.5543 24.5252 11.6371C24.5252 11.7306 24.2848 12.1741 24.0363 12.5391C23.6046 13.173 23.1255 13.7286 22.2894 14.5644C21.222 15.6316 20.3391 16.3352 19.5999 16.7078C19.3564 16.8306 19.3362 16.8341 19.2409 16.7706C19.0742 16.6596 18.8234 16.4083 18.7312 16.2598L18.6446 16.1204L18.7744 15.8585C19.5054 14.3828 21.9702 11.885 23.4862 11.0835C23.6465 10.9987 23.7921 10.9294 23.8098 10.9294C23.8274 10.9294 23.9357 11.0035 24.0503 11.0942ZM101.525 14.0493V14.7194L101.37 15.0314C101.157 15.4604 100.729 15.8832 100.3 16.089C99.8409 16.3094 99.4381 16.3968 98.8852 16.3962C98.0042 16.3953 97.4098 16.0986 97.1127 15.5116C97.0109 15.3103 96.9928 15.2235 96.9917 14.929C96.9901 14.5399 97.0475 14.3252 97.2211 14.0711C97.4406 13.7497 97.9659 13.4939 98.5473 13.4251C98.7099 13.4059 99.4464 13.3877 100.184 13.3847L101.525 13.3792V14.0493ZM32.7841 19.8059C33.0903 20.1439 33.0788 20.0968 32.9282 20.397C32.2091 21.83 29.8219 24.2657 28.3067 25.1123C28.1435 25.2035 27.9702 25.2907 27.9217 25.306C27.8097 25.3414 27.5022 25.1136 27.2942 24.8413C27.1485 24.6505 27.1474 24.6458 27.2101 24.4939C27.7632 23.1541 30.5085 20.3392 31.9885 19.5946L32.3173 19.4291L32.4867 19.5469C32.5798 19.6116 32.7136 19.7282 32.7841 19.8059ZM18.8905 23.0301C17.0882 25.0973 13.9907 28.39 10.6451 31.7949C9.73138 32.7248 9.57716 32.9004 9.51651 33.0801C9.47786 33.1947 9.44627 33.343 9.44627 33.4099C9.44627 33.7875 9.67393 34.1627 10.0104 34.3397C10.2443 34.4626 10.6688 34.4671 10.8893 34.3489C11.0462 34.2647 11.4686 33.8678 12.952 32.4107C15.6806 29.7304 18.6014 26.9898 20.4678 25.3585C20.8961 24.9841 21.3048 24.6262 21.3759 24.563L21.5052 24.4481L21.294 24.2711C21.1779 24.1738 20.707 23.72 20.2477 23.2627L19.4126 22.4312L18.8905 23.0301ZM39.975 24.2177C40.0871 24.2401 40.124 24.2886 40.2725 24.6084C40.5279 25.1583 40.5279 25.1574 40.3132 25.4221C39.6785 26.2043 38.1437 26.8292 37.2811 26.6567C37.1598 26.6324 37.1275 26.5935 37.0041 26.3228C36.766 25.8003 36.7476 25.7023 36.855 25.5286C37.3235 24.7705 39.07 24.0367 39.975 24.2177ZM168.346 36.948V47.254H170.985H173.625V36.948V26.6419H170.985H168.346V36.948ZM67.7135 27.4504C63.8523 27.6157 60.6413 29.4828 58.8984 32.5763C58.3784 33.4993 58.022 34.5125 57.8066 35.6808C57.6958 36.2815 57.6468 37.9306 57.7175 38.6797C57.9259 40.8887 58.8614 42.9158 60.4045 44.5025C62.0492 46.1934 64.1139 47.1886 66.7421 47.5573C67.2478 47.6282 69.3962 47.6286 69.931 47.5578C70.4221 47.4929 71.0989 47.365 71.5544 47.2512C72.9501 46.9022 74.5334 46.0744 75.5738 45.1497C75.9897 44.7801 76.6926 44.0344 76.6856 43.9704C76.6837 43.9528 75.9003 43.2337 74.9449 42.3724L73.2076 40.8064L72.7625 41.2587C71.8631 42.1726 70.9561 42.6916 69.8043 42.9512C69.2232 43.0823 68.0591 43.0935 67.4601 42.9738C65.4656 42.5752 64.0424 41.287 63.4745 39.3663C63.2956 38.7615 63.2359 38.2859 63.2399 37.4971C63.244 36.6793 63.3173 36.1853 63.5321 35.5298C64.1106 33.7639 65.372 32.6122 67.234 32.1499C67.6826 32.0386 67.7708 32.0309 68.6005 32.0301C69.4445 32.0293 69.5101 32.0352 69.9522 32.1513C71.074 32.4459 71.843 32.898 72.7397 33.7902C73.0419 34.0909 73.221 34.24 73.2523 34.2169C73.3961 34.111 76.6891 31.1079 76.6891 31.0826C76.6891 31.0661 76.4658 30.8169 76.1928 30.5289C75.2713 29.5567 74.3186 28.8918 73.0644 28.3457C72.5394 28.1171 71.7291 27.8502 71.2843 27.7592C71.1091 27.7234 70.8993 27.6766 70.818 27.6552C70.2705 27.5113 68.7045 27.408 67.7135 27.4504ZM40.2638 27.9695C40.593 28.0274 41.0529 28.2092 41.2303 28.3516C41.3032 28.4101 41.3165 28.4786 41.3267 28.8506C41.3348 29.1415 41.321 29.3145 41.2845 29.3824C41.2162 29.5094 40.9288 29.6601 40.528 29.7791C40.1006 29.9059 38.9791 29.9145 38.5271 29.7943C38.1273 29.688 37.7485 29.4843 37.696 29.3476C37.6732 29.2882 37.6609 29.0524 37.6685 28.8237C37.6819 28.4204 37.6861 28.4047 37.8075 28.308C37.9604 28.1862 38.3553 28.0348 38.6961 27.9674C39.0525 27.897 39.8577 27.898 40.2638 27.9695ZM38.1898 31.1566C38.8448 31.2918 39.4721 31.5876 39.964 31.9934C40.2154 32.2008 40.4912 32.5369 40.4912 32.6361C40.4912 32.6995 40.1654 33.447 40.1164 33.496C40.0383 33.5741 39.7073 33.6035 39.3367 33.5652C38.4504 33.4736 37.3587 32.912 36.9235 32.3239C36.7382 32.0734 36.7412 32.0313 36.9813 31.5189C37.1263 31.2096 37.1644 31.1607 37.2879 31.1251C37.5077 31.0618 37.776 31.0712 38.1898 31.1566ZM84.8622 31.9935C84.4856 32.0277 83.6522 32.186 83.218 32.3057C82.351 32.5448 81.5728 32.8936 80.8307 33.3756C78.308 35.0139 77.0546 37.9727 77.5729 41.0662C77.8343 42.6262 78.5357 43.9898 79.6307 45.0666C80.7453 46.1627 82.0017 46.8521 83.5877 47.2378C84.1934 47.3851 85.2701 47.5075 85.9579 47.5072C88.3411 47.5061 90.4443 46.7495 92.0573 45.3129C92.8364 44.6191 93.6235 43.4487 93.9758 42.46C94.4997 40.99 94.5847 39.1958 94.2018 37.686C93.4118 34.5701 90.7306 32.4132 87.143 32.0076C86.791 31.9678 85.2495 31.9582 84.8622 31.9935ZM124.946 31.9899C123.519 32.1944 122.382 32.6858 121.445 33.5031L121.125 33.7816L121.114 32.9889L121.102 32.1962H118.589H116.076L116.065 39.7251L116.055 47.254H118.692H121.329L121.346 43.252C121.362 39.3293 121.364 39.2419 121.454 38.8426C121.667 37.8976 122.021 37.3365 122.679 36.9045C122.859 36.7863 123.153 36.6421 123.341 36.58C123.645 36.4794 123.742 36.4682 124.312 36.4676C124.857 36.4671 124.984 36.4801 125.218 36.5606C125.981 36.8224 126.406 37.3159 126.665 38.2383C126.759 38.573 126.759 38.5881 126.782 42.9035L126.804 47.2329L129.434 47.2438L132.063 47.2547L132.062 42.5343C132.062 39.7319 132.045 37.6508 132.02 37.4126C131.926 36.508 131.725 35.7738 131.365 35.0223C130.861 33.972 129.959 33.0831 128.878 32.5736C128.392 32.3444 128.086 32.2427 127.467 32.1044C127.028 32.0062 126.869 31.9928 126.023 31.9828C125.5 31.9767 125.016 31.9799 124.946 31.9899ZM140.574 31.9893C140.504 31.9989 140.229 32.0361 139.962 32.072C138.04 32.3302 136.318 33.1649 135.446 34.261C134.765 35.1165 134.493 35.8988 134.495 36.9902C134.496 37.6783 134.57 38.1158 134.772 38.6436C135.143 39.6119 136.072 40.4607 137.236 40.896C137.845 41.1235 138.957 41.3639 140.173 41.5305C141.209 41.6725 142.289 41.8676 142.633 41.9749C143.132 42.1306 143.34 42.3393 143.34 42.6831C143.341 43.5038 142.267 43.8285 140.098 43.663C138.763 43.5612 137.098 43.0801 136.071 42.4996C135.93 42.4198 135.8 42.3544 135.782 42.3544C135.765 42.3544 135.632 42.6253 135.486 42.9563C135.341 43.2873 135.055 43.9383 134.851 44.403C134.646 44.8676 134.413 45.3998 134.331 45.5856C134.194 45.8965 134.188 45.9282 134.253 45.9815C134.431 46.1291 135.481 46.5898 136.033 46.7628C138.14 47.4224 140.389 47.6438 142.538 47.403C144 47.2392 145.273 46.8177 146.266 46.1685C146.647 45.919 147.373 45.2045 147.587 44.8676C147.827 44.4893 148.053 43.9828 148.162 43.5793C148.292 43.0968 148.302 42.0098 148.182 41.4885C147.969 40.5689 147.534 39.9009 146.773 39.3285C146.417 39.0604 145.869 38.7588 145.517 38.6379C144.961 38.4464 143.878 38.1982 142.855 38.0276C140.278 37.598 139.873 37.4936 139.586 37.1858C139.478 37.0704 139.421 36.7513 139.471 36.5498C139.545 36.2578 139.992 35.9572 140.559 35.8195C141.003 35.7118 142.621 35.712 143.256 35.8198C144.141 35.9701 144.849 36.192 145.653 36.571L146.169 36.8149L146.248 36.6386C146.291 36.5416 146.512 36.0441 146.739 35.533C146.965 35.0219 147.282 34.3106 147.442 33.9524C147.602 33.5941 147.733 33.2785 147.733 33.251C147.733 33.105 146.146 32.5159 145.23 32.322C143.969 32.055 143.416 31.9969 142.01 31.9839C141.29 31.9773 140.644 31.9797 140.574 31.9893ZM156.793 31.9932C156.531 32.0166 155.729 32.17 155.378 32.264C153.94 32.6495 152.685 33.3818 151.682 34.4209C150.622 35.5205 149.991 36.7662 149.71 38.3197C149.634 38.7341 149.618 38.987 149.618 39.6934C149.618 40.6365 149.692 41.2077 149.909 41.9331C150.527 43.9989 151.886 45.5732 153.892 46.5495C154.867 47.0239 155.779 47.2761 157.068 47.4282C158.305 47.5742 159.846 47.4979 160.992 47.2338C162.378 46.9146 163.578 46.2897 164.496 45.4095L164.856 45.0644L163.993 44.1658C163.518 43.6716 162.888 43.0191 162.594 42.7158L162.059 42.1644L161.94 42.2578C161.233 42.8087 160.598 43.1434 159.927 43.3178C159.53 43.4209 159.429 43.4297 158.631 43.4306C157.823 43.4314 157.735 43.4238 157.328 43.3171C156.573 43.1193 155.901 42.7142 155.507 42.2202C155.343 42.0146 154.994 41.3558 154.934 41.1401L154.908 41.045H160.375H165.843L165.873 40.6543C165.91 40.1945 165.909 38.9541 165.872 38.6805C165.772 37.9336 165.57 37.1172 165.349 36.5678C164.816 35.2421 163.738 33.9622 162.514 33.201C161.512 32.578 160.239 32.1467 158.99 32.007C158.638 31.9677 157.182 31.9585 156.793 31.9932ZM96.8113 32.2342C96.7987 32.267 96.7961 34.3532 96.8055 36.8701C96.8204 40.8632 96.8317 41.5163 96.8943 41.9954C97.0576 43.2471 97.3869 44.1964 97.9584 45.0643C98.2143 45.4529 98.8692 46.1076 99.2924 46.3978C100.795 47.4283 102.987 47.7719 104.899 47.2765C105.206 47.1969 105.87 46.9583 106.087 46.8499C106.408 46.689 107.053 46.2355 107.343 45.9667L107.65 45.6833V46.469V47.2547L110.173 47.2438L112.697 47.2329V39.7146V32.1962H110.057H107.417L107.393 36.2933C107.367 40.8045 107.376 40.6512 107.098 41.3185C106.65 42.3949 105.757 42.9873 104.587 42.9843C103.438 42.9814 102.672 42.4514 102.334 41.4252C102.143 40.8449 102.146 40.9036 102.12 36.4622L102.095 32.1962L99.4647 32.1853C97.2294 32.1761 96.8308 32.1834 96.8113 32.2342ZM32.9835 32.3621C33.3461 32.4915 33.3781 32.5402 34.0497 33.9838L34.679 35.3367L35.7372 35.3515C36.9371 35.3683 37.0447 35.3915 37.2982 35.6876C37.5503 35.9821 37.5531 36.0141 37.5487 38.5652C37.5443 41.1589 37.5485 41.1193 37.2429 41.3954C37.1549 41.4749 36.9936 41.574 36.8845 41.6157C36.6962 41.6877 36.4096 41.6901 31.1865 41.6649C23.8902 41.6296 17.4153 41.5166 17.0295 41.4178C16.8184 41.3636 16.5656 41.1153 16.5076 40.905C16.4664 40.756 16.4911 39.7779 16.6097 36.8546C16.6414 36.0725 16.6747 35.9646 16.9326 35.8073C17.1051 35.7022 17.2082 35.7024 18.2967 35.8107C19.2075 35.9014 19.3317 35.9338 19.5577 36.1397L19.6799 36.251L19.6506 36.1454C19.5459 35.7688 19.5662 35.6778 20.0562 34.3292C20.5806 32.8859 20.6717 32.7183 20.9723 32.6448C21.2424 32.5787 25.9373 32.42 29.7627 32.3476C32.4479 32.2968 32.805 32.2984 32.9835 32.3621ZM21.1926 34.5391C20.6547 35.593 20.1512 36.4906 20.0733 36.5342C20.0227 36.5625 19.9707 36.5546 19.8989 36.5075C19.798 36.4414 19.7969 36.4421 19.8203 36.5593C19.8351 36.6331 19.8226 36.696 19.7874 36.7252C19.7312 36.7719 18.5051 36.9057 18.134 36.9057C18.0279 36.9057 17.9325 36.92 17.922 36.9374C17.8932 36.9851 17.9952 39.8089 18.0269 39.8405C18.0419 39.8556 19.3344 39.8378 20.8991 39.801C23.3243 39.7439 31.5648 39.6543 34.6095 39.6519L35.5493 39.6512V38.4935V37.3358L34.7151 37.32C33.5506 37.2979 33.4227 37.231 33.0859 36.4675C32.9822 36.2323 32.7602 35.7262 32.5926 35.3429C32.425 34.9596 32.2408 34.5388 32.1832 34.4079L32.0786 34.1698L30.8256 34.1434C26.1815 34.046 23.773 33.9797 21.812 33.8953L21.5274 33.883L21.1926 34.5391ZM158.621 35.7844C159.247 35.9161 159.695 36.1571 160.123 36.592C160.507 36.9832 160.818 37.5704 160.932 38.1201L160.961 38.2573H157.895C156.209 38.2573 154.829 38.2512 154.829 38.2437C154.829 38.2361 154.876 38.0745 154.933 37.8843C155.25 36.824 156.029 36.0623 157.053 35.8106C157.463 35.7098 158.207 35.6973 158.621 35.7844ZM86.6292 36.2369C87.5182 36.3727 88.3481 37.0237 88.7475 37.8983C88.8218 38.0609 88.9283 38.3745 88.9842 38.5952C89.0726 38.9438 89.0857 39.0907 89.0838 39.7146C89.082 40.3191 89.0661 40.4957 88.9834 40.8315C88.6918 42.0139 87.9666 42.8241 86.8931 43.1664C86.5312 43.2818 85.6837 43.3137 85.277 43.2272C84.3009 43.0197 83.5472 42.4058 83.1421 41.4885C82.8877 40.9123 82.8345 40.5941 82.8385 39.6723C82.8418 38.8798 82.8491 38.8042 82.9568 38.4495C83.1351 37.862 83.3739 37.4426 83.7421 37.0702C84.3181 36.4874 84.777 36.2823 85.7492 36.1733C85.9104 36.1552 86.2599 36.1805 86.6292 36.2369Z" fill="#F3F1EE"/>
</svg>
