<svg width="42" height="41" viewBox="0 0 42 41" fill="none" xmlns="http://www.w3.org/2000/svg">
<mask id="mask0_385_28" style="mask-type:alpha" maskUnits="userSpaceOnUse" x="0" y="0" width="42" height="41">
<rect x="0.5" width="41" height="41" fill="#D9D9D9"/>
</mask>
<g mask="url(#mask0_385_28)">
<path d="M5.625 34.1667V32.4583H20.1458V13.565C19.3398 13.4181 18.628 13.0522 18.0104 12.4674C17.3929 11.8826 16.9997 11.1435 16.8308 10.25H10.9473L15.875 22.5696C15.8092 23.7085 15.2804 24.6777 14.2884 25.4772C13.2961 26.2767 12.1167 26.6765 10.75 26.6765C9.38333 26.6765 8.20387 26.2767 7.21161 25.4772C6.21964 24.6777 5.69077 23.7085 5.625 22.5696L10.5527 10.25H7.33333V8.54167H16.8308C17.0193 7.58899 17.4946 6.78137 18.2568 6.11882C19.019 5.45628 19.9334 5.125 21 5.125C22.0666 5.125 22.981 5.45628 23.7432 6.11882C24.5054 6.78137 24.9807 7.58899 25.1692 8.54167H34.6667V10.25H31.4473L36.375 22.5696C36.3092 23.7085 35.7804 24.6777 34.7884 25.4772C33.7961 26.2767 32.6167 26.6765 31.25 26.6765C29.8833 26.6765 28.7039 26.2767 27.7116 25.4772C26.7196 24.6777 26.1908 23.7085 26.125 22.5696L31.0527 10.25H25.1692C25.0003 11.1435 24.6071 11.8826 23.9896 12.4674C23.372 13.0522 22.6602 13.4181 21.8542 13.565V32.4583H36.375V34.1667H5.625ZM27.8171 22.4056H34.6829L31.25 13.8243L27.8171 22.4056ZM7.3171 22.4056H14.1829L10.75 13.8243L7.3171 22.4056ZM21 11.9583C21.703 11.9583 22.3059 11.7071 22.8087 11.2045C23.3112 10.7017 23.5625 10.0988 23.5625 9.39583C23.5625 8.69285 23.3112 8.08996 22.8087 7.58714C22.3059 7.0846 21.703 6.83333 21 6.83333C20.297 6.83333 19.6941 7.0846 19.1913 7.58714C18.6888 8.08996 18.4375 8.69285 18.4375 9.39583C18.4375 10.0988 18.6888 10.7017 19.1913 11.2045C19.6941 11.7071 20.297 11.9583 21 11.9583Z" fill="#1B4878"/>
</g>
</svg>
