<svg width="41" height="41" viewBox="0 0 41 41" fill="none" xmlns="http://www.w3.org/2000/svg">
<mask id="mask0_402_1216" style="mask-type:alpha" maskUnits="userSpaceOnUse" x="0" y="0" width="41" height="41">
<rect width="41" height="41" fill="#D9D9D9"/>
</mask>
<g mask="url(#mask0_402_1216)">
<path d="M27.6157 36.795L22.7666 31.9459L23.9428 30.7697L27.573 34.3999L34.8334 27.1395L36.0092 28.3584L27.6157 36.795ZM12.6413 27.8262L11.4652 26.65L14.1985 23.9167L11.4652 21.1834L12.6413 20.0072L15.3747 22.7405L18.108 20.0072L19.2842 21.1834L16.5509 23.9167L19.2842 26.65L18.108 27.8262L15.3747 25.0929L12.6413 27.8262ZM9.59282 35.875C8.80642 35.875 8.14985 35.6117 7.62311 35.0849C7.09638 34.5582 6.83301 33.9016 6.83301 33.1152V11.3015C6.83301 10.5151 7.09638 9.85854 7.62311 9.3318C8.14985 8.80507 8.80642 8.5417 9.59282 8.5417H12.6149V4.73083H14.4547V8.5417H26.6762V4.73083H28.3845V8.5417H31.4065C32.1929 8.5417 32.8495 8.80507 33.3762 9.3318C33.903 9.85854 34.1663 10.5151 34.1663 11.3015V21.0651L32.458 22.8161V18.1348H8.54134V33.1152C8.54134 33.3783 8.65082 33.6193 8.86977 33.8383C9.08872 34.0572 9.32974 34.1667 9.59282 34.1667H18.2656L20.0299 35.875H9.59282ZM8.54134 16.4261H32.458V11.3015C32.458 11.0384 32.3485 10.7974 32.1296 10.5785C31.9106 10.3595 31.6696 10.25 31.4065 10.25H9.59282C9.32974 10.25 9.08872 10.3595 8.86977 10.5785C8.65082 10.7974 8.54134 11.0384 8.54134 11.3015V16.4261Z" fill="#1B4878"/>
</g>
</svg>
