<svg width="16" height="17" viewBox="0 0 16 17" fill="none" xmlns="http://www.w3.org/2000/svg">
<path fill-rule="evenodd" clip-rule="evenodd" d="M2.34316 2.84316C3.84332 1.34289 5.87833 0.5 8 0.5C10.1207 0.502556 12.1543 1.34621 13.654 2.84596C15.1539 4.3455 15.9974 6.37905 16 8.5C16 10.6217 15.1571 12.6565 13.6568 14.1568C12.1567 15.6571 10.1217 16.5 8 16.5C5.87833 16.5 3.84353 15.6571 2.34316 14.1568C0.8429 12.6567 0 10.6217 0 8.5C0 6.37833 0.8429 4.34353 2.34316 2.84316ZM7.7855 10.8321L11.422 7.19564C11.6005 7.01094 11.668 6.74602 11.6002 6.49837C11.5323 6.2506 11.3388 6.05713 11.0911 5.98919C10.8434 5.92138 10.5782 5.98908 10.3935 6.16756L7.27146 9.28963L5.6038 7.62198C5.46828 7.48172 5.28201 7.40172 5.08695 7.40001C4.8919 7.39831 4.70429 7.47501 4.56634 7.61296C4.42852 7.75091 4.35169 7.93852 4.3534 8.13357C4.3551 8.32863 4.43508 8.51478 4.57548 8.6503L6.75729 10.8321C6.89366 10.9685 7.07862 11.0451 7.27146 11.0451C7.46431 11.0451 7.64913 10.9685 7.7855 10.8321Z" fill="#A8C9E4"/>
</svg>
