<svg width="41" height="41" viewBox="0 0 41 41" fill="none" xmlns="http://www.w3.org/2000/svg">
<mask id="mask0_393_307" style="mask-type:alpha" maskUnits="userSpaceOnUse" x="0" y="0" width="41" height="41">
<rect width="41" height="41" fill="#D9D9D9"/>
</mask>
<g mask="url(#mask0_393_307)">
<path d="M16.032 14.3235V12.6152H30.0933V14.3235H16.032ZM16.032 19.0543V17.346H30.0933V19.0543H16.032ZM20.2375 35.875H10.2502C9.28638 35.875 8.47606 35.5464 7.8192 34.8893C7.16207 34.2324 6.8335 33.4221 6.8335 32.4583V27.7275H11.9585V5.125H34.1668V18.6046C33.8602 18.6131 33.5683 18.6453 33.2913 18.7011C33.0143 18.7572 32.7367 18.8367 32.4585 18.9394V6.83333H13.6668V27.7275H22.8L21.0917 29.4359H8.54183V32.4583C8.54183 32.9424 8.70554 33.3481 9.03298 33.6755C9.36041 34.003 9.76613 34.1667 10.2502 34.1667H20.2375V35.875ZM24.311 35.875V32.1004L33.4211 23.033C33.5897 22.8642 33.7649 22.7503 33.9469 22.6914C34.1285 22.6321 34.3103 22.6025 34.4923 22.6025C34.6805 22.6025 34.8709 22.6393 35.0637 22.7127C35.2565 22.7859 35.4262 22.8959 35.5728 23.0429L37.153 24.6559C37.2934 24.8245 37.4001 24.9998 37.4733 25.1817C37.5468 25.3633 37.5835 25.545 37.5835 25.7266C37.5835 25.9086 37.5485 26.0921 37.4784 26.2772C37.4084 26.4622 37.2999 26.639 37.153 26.8076L28.086 35.875H24.311ZM25.8225 34.364H27.4454L33.3686 28.4305L32.567 27.6191L31.7884 26.7845L25.8225 32.7411V34.364ZM32.567 27.6191L31.7884 26.7845L33.3686 28.4305L32.567 27.6191Z" fill="#1B4878"/>
</g>
</svg>
