<svg width="41" height="41" viewBox="0 0 41 41" fill="none" xmlns="http://www.w3.org/2000/svg">
<mask id="mask0_400_948" style="mask-type:alpha" maskUnits="userSpaceOnUse" x="0" y="0" width="41" height="41">
<rect width="41" height="41" fill="#D9D9D9"/>
</mask>
<g mask="url(#mask0_400_948)">
<path d="M27.3333 18.3975C27.6858 18.3975 27.993 18.2666 28.255 18.005C28.5166 17.743 28.6475 17.4358 28.6475 17.0833C28.6475 16.7308 28.5166 16.4236 28.255 16.1617C27.993 15.9 27.6858 15.7692 27.3333 15.7692C26.9808 15.7692 26.6736 15.9 26.4117 16.1617C26.15 16.4236 26.0192 16.7308 26.0192 17.0833C26.0192 17.4358 26.15 17.743 26.4117 18.005C26.6736 18.2666 26.9808 18.3975 27.3333 18.3975ZM13.6667 14.5208H22.2083V12.8125H13.6667V14.5208ZM8.96875 34.1667C8.13224 31.1836 7.28248 28.2242 6.41949 25.2885C5.5565 22.3524 5.125 19.3326 5.125 16.2292C5.125 14.0915 5.87183 12.2758 7.36548 10.7821C8.85913 9.28849 10.6748 8.54167 12.8125 8.54167H22.2083C22.9463 7.56934 23.8186 6.75674 24.8251 6.10387C25.8316 5.45129 26.9524 5.125 28.1875 5.125C28.4176 5.125 28.6174 5.20985 28.7871 5.37954C28.9568 5.54924 29.0417 5.74911 29.0417 5.97917C29.0417 6.04038 29.0313 6.10174 29.0105 6.16324C28.9897 6.22445 28.9728 6.2824 28.9597 6.33706C28.7581 6.84757 28.5965 7.3706 28.4749 7.90617C28.3534 8.44144 28.2422 8.97857 28.1414 9.51755L33.1451 14.5208H35.875V23.4798L31.3774 24.9613L28.6146 34.1667H22.2083V30.75H15.375V34.1667H8.96875ZM10.25 32.4583H13.6667V29.0417H23.9167V32.4583H27.3333L29.9813 23.6604L34.1667 22.251V16.2292H32.4583L26.4792 10.25C26.4792 9.68056 26.5148 9.13247 26.5859 8.60573C26.6571 8.07899 26.7858 7.5561 26.972 7.03705C26.1463 7.26483 25.4312 7.66728 24.8268 8.24442C24.2223 8.82155 23.7339 9.49008 23.3615 10.25H12.8125C11.1611 10.25 9.75174 10.8337 8.58438 12.001C7.41701 13.1684 6.83333 14.5778 6.83333 16.2292C6.83333 19.0194 7.21771 21.7457 7.98646 24.4078C8.75521 27.07 9.50972 29.7535 10.25 32.4583Z" fill="#1B4878"/>
</g>
</svg>
