<svg width="42" height="41" viewBox="0 0 42 41" fill="none" xmlns="http://www.w3.org/2000/svg">
<mask id="mask0_385_44" style="mask-type:alpha" maskUnits="userSpaceOnUse" x="0" y="0" width="42" height="41">
<rect x="0.5" width="41" height="41" fill="#D9D9D9"/>
</mask>
<g mask="url(#mask0_385_44)">
<path d="M21.0002 37.5834C17.5266 37.5834 14.4133 36.6602 11.6603 34.8138C8.90734 32.9676 6.84082 30.484 5.46077 27.3629V32.9842H3.75244V24.4425H12.2941V26.1508H6.81762C7.92149 29.0769 9.77161 31.4291 12.368 33.2075C14.9647 34.9859 17.8421 35.8751 21.0002 35.8751C23.0479 35.8751 24.9715 35.5076 26.771 34.7728C28.5701 34.0379 30.1546 33.0239 31.5244 31.7307C32.8945 30.4375 34.0072 28.9022 34.8625 27.125C35.7178 25.3475 36.2111 23.4239 36.3423 21.3542H38.0506C37.941 23.6167 37.417 25.7334 36.4786 27.7045C35.5401 29.6757 34.3098 31.395 32.7877 32.8624C31.2656 34.3299 29.4915 35.4836 27.4654 36.3235C25.4396 37.1635 23.2845 37.5834 21.0002 37.5834ZM20.1196 31.8016V29.7118C18.9568 29.4425 17.9663 28.981 17.1483 28.3272C16.3303 27.6735 15.6782 26.7618 15.1919 25.5922L16.6965 24.9417C17.1697 25.9995 17.8021 26.8148 18.5936 27.3877C19.3854 27.9602 20.273 28.2465 21.2565 28.2465C22.2618 28.2465 23.2031 27.9822 24.0803 27.4534C24.9573 26.9244 25.3957 26.0587 25.3957 24.8563C25.3957 23.8991 25.0798 23.1479 24.448 22.6026C23.8162 22.0574 22.5815 21.4464 20.744 20.7696C18.9109 20.1059 17.6083 19.405 16.8361 18.667C16.064 17.9288 15.6779 16.9453 15.6779 15.7167C15.6779 14.6809 16.0672 13.7244 16.846 12.8472C17.6247 11.9699 18.7443 11.4219 20.205 11.2029V9.1986H21.8808V11.2029C22.7743 11.2664 23.6081 11.5752 24.3823 12.1292C25.1564 12.6833 25.744 13.3711 26.1448 14.1925L24.6599 14.7772C24.3008 14.1662 23.8322 13.6619 23.2539 13.2644C22.6756 12.867 21.9529 12.6682 21.0856 12.6682C19.9576 12.6682 19.0536 12.9584 18.3736 13.5386C17.6937 14.1189 17.3538 14.8449 17.3538 15.7167C17.3538 16.5886 17.6154 17.2598 18.1387 17.7304C18.6621 18.2014 19.8656 18.7654 21.7493 19.4226C23.7993 20.1628 25.1879 20.9545 25.9151 21.7976C26.6423 22.6409 27.0058 23.6605 27.0058 24.8563C27.0058 25.6601 26.847 26.3642 26.5292 26.9687C26.2118 27.5732 25.8016 28.0741 25.2988 28.4716C24.7963 28.8694 24.2372 29.176 23.6216 29.3915C23.0064 29.6073 22.3976 29.7426 21.7954 29.7973V31.8016H20.1196ZM3.94975 19.6459C4.10293 17.2739 4.65971 15.0969 5.62008 13.115C6.58073 11.1327 7.83308 9.41884 9.37713 7.9733C10.9212 6.52777 12.6897 5.40696 14.6828 4.61087C16.6758 3.81479 18.7816 3.41675 21.0002 3.41675C24.408 3.41675 27.5213 4.34537 30.3401 6.20261C33.1588 8.05985 35.2253 10.5818 36.5396 13.7684V8.01601H38.248V16.5577H29.7063V14.8493H35.1828C34.1447 12.0109 32.3219 9.68064 29.7144 7.85842C27.1069 6.03619 24.2022 5.12508 21.0002 5.12508C19.0399 5.12508 17.1657 5.48155 15.3776 6.1945C13.5893 6.90744 11.9991 7.89956 10.6071 9.17084C9.21541 10.4421 8.07552 11.9665 7.18747 13.7441C6.29914 15.5213 5.78934 17.4886 5.65809 19.6459H3.94975Z" fill="#1B4878"/>
</g>
</svg>
