<svg width="41" height="41" viewBox="0 0 41 41" fill="none" xmlns="http://www.w3.org/2000/svg">
<mask id="mask0_393_315" style="mask-type:alpha" maskUnits="userSpaceOnUse" x="0" y="0" width="41" height="41">
<rect width="41" height="41" fill="#D9D9D9"/>
</mask>
<g mask="url(#mask0_393_315)">
<path d="M11.9583 23.2599C12.2453 23.2599 12.4923 23.1564 12.6993 22.9494C12.9063 22.7424 13.0098 22.4954 13.0098 22.2084C13.0098 21.9214 12.9063 21.6744 12.6993 21.4674C12.4923 21.2604 12.2453 21.1569 11.9583 21.1569C11.6713 21.1569 11.4243 21.2604 11.2173 21.4674C11.0104 21.6744 10.9069 21.9214 10.9069 22.2084C10.9069 22.4954 11.0104 22.7424 11.2173 22.9494C11.4243 23.1564 11.6713 23.2599 11.9583 23.2599ZM11.9583 16.4265C12.2453 16.4265 12.4923 16.323 12.6993 16.116C12.9063 15.909 13.0098 15.662 13.0098 15.375C13.0098 15.088 12.9063 14.841 12.6993 14.6341C12.4923 14.4271 12.2453 14.3236 11.9583 14.3236C11.6713 14.3236 11.4243 14.4271 11.2173 14.6341C11.0104 14.841 10.9069 15.088 10.9069 15.375C10.9069 15.662 11.0104 15.909 11.2173 16.116C11.4243 16.323 11.6713 16.4265 11.9583 16.4265ZM15.5723 23.0625H29.8958V21.3542H15.5723V23.0625ZM15.5723 16.2292H29.8958V14.5209H15.5723V16.2292ZM15.375 34.1667V30.75H7.88481C7.09841 30.75 6.44184 30.4867 5.9151 29.9599C5.38837 29.4332 5.125 28.7766 5.125 27.9902V9.59319C5.125 8.80678 5.38837 8.15021 5.9151 7.62348C6.44184 7.09674 7.09841 6.83337 7.88481 6.83337H33.1152C33.9016 6.83337 34.5582 7.09674 35.0849 7.62348C35.6116 8.15021 35.875 8.80678 35.875 9.59319V27.9902C35.875 28.7766 35.6116 29.4332 35.0849 29.9599C34.5582 30.4867 33.9016 30.75 33.1152 30.75H25.625V34.1667H15.375ZM7.88481 29.0417H33.1152C33.3783 29.0417 33.6193 28.9322 33.8382 28.7133C34.0572 28.4943 34.1667 28.2533 34.1667 27.9902V9.59319C34.1667 9.3301 34.0572 9.08909 33.8382 8.87013C33.6193 8.65118 33.3783 8.54171 33.1152 8.54171H7.88481C7.62173 8.54171 7.38071 8.65118 7.16176 8.87013C6.94281 9.08909 6.83333 9.3301 6.83333 9.59319V27.9902C6.83333 28.2533 6.94281 28.4943 7.16176 28.7133C7.38071 28.9322 7.62173 29.0417 7.88481 29.0417Z" fill="#1B4878"/>
</g>
</svg>
