<svg width="42" height="41" viewBox="0 0 42 41" fill="none" xmlns="http://www.w3.org/2000/svg">
<mask id="mask0_385_52" style="mask-type:alpha" maskUnits="userSpaceOnUse" x="0" y="0" width="42" height="41">
<rect x="0.5" width="41" height="41" fill="#D9D9D9"/>
</mask>
<g mask="url(#mask0_385_52)">
<path d="M19.2589 24.7709H22.7413L21.7919 19.4913C22.2956 19.3162 22.7111 19.0074 23.0385 18.5649C23.366 18.1225 23.5297 17.6286 23.5297 17.0834C23.5297 16.3847 23.2827 15.7885 22.7887 15.2948C22.295 14.8008 21.6988 14.5538 21.0001 14.5538C20.3014 14.5538 19.7052 14.8008 19.2115 15.2948C18.7175 15.7885 18.4705 16.3847 18.4705 17.0834C18.4705 17.6286 18.6342 18.1225 18.9616 18.5649C19.289 19.0074 19.7046 19.3162 20.2083 19.4913L19.2589 24.7709ZM21.0001 35.8093C17.568 34.7908 14.717 32.7118 12.4469 29.5722C10.1768 26.4325 9.04175 22.896 9.04175 18.9626V9.72431L21.0001 5.25659L32.9584 9.72431V18.9626C32.9584 22.896 31.8234 26.4325 29.5533 29.5722C27.2832 32.7118 24.4321 34.7908 21.0001 35.8093ZM21.0001 33.9959C23.9612 33.0563 26.4098 31.1771 28.3459 28.3584C30.282 25.5396 31.2501 22.4077 31.2501 18.9626V10.8907L21.0001 7.07981L10.7501 10.8907V18.9626C10.7501 22.4077 11.7181 25.5396 13.6542 28.3584C15.5904 31.1771 18.039 33.0563 21.0001 33.9959Z" fill="#1B4878"/>
</g>
</svg>
