<svg width="41" height="41" viewBox="0 0 41 41" fill="none" xmlns="http://www.w3.org/2000/svg">
<mask id="mask0_694_1123" style="mask-type:alpha" maskUnits="userSpaceOnUse" x="0" y="0" width="41" height="41">
<rect width="41" height="41" fill="#D9D9D9"/>
</mask>
<g mask="url(#mask0_694_1123)">
<path d="M8.86361 19.1628L13.049 20.9335C13.5789 19.8734 14.156 18.8474 14.7804 17.8555C15.4045 16.8632 16.0933 15.8984 16.8466 14.9611L14.2252 14.4585C14.0498 14.4146 13.88 14.42 13.7157 14.4747C13.5514 14.5296 13.4036 14.6227 13.2724 14.754L8.86361 19.1628ZM14.4024 22.0178L19.2383 26.8439C20.5876 26.2349 21.9456 25.4605 23.3123 24.521C24.6789 23.5814 25.9929 22.4809 27.2542 21.2196C29.0941 19.3797 30.4996 17.4179 31.4708 15.334C32.4423 13.2501 32.9883 10.8436 33.1087 8.11456C30.3796 8.235 27.977 8.78095 25.9008 9.75242C23.8246 10.7236 21.8666 12.1291 20.0267 13.969C18.7654 15.2303 17.6649 16.5499 16.7254 17.9277C15.7858 19.3051 15.0115 20.6685 14.4024 22.0178ZM23.2529 17.9605C22.7515 17.4589 22.5008 16.8571 22.5008 16.1553C22.5008 15.4534 22.7515 14.8517 23.2529 14.35C23.7546 13.8483 24.3635 13.5975 25.0795 13.5975C25.7956 13.5975 26.4045 13.8483 26.9062 14.35C27.4078 14.8517 27.6587 15.4534 27.6587 16.1553C27.6587 16.8571 27.4078 17.4589 26.9062 17.9605C26.4045 18.4619 25.7956 18.7126 25.0795 18.7126C24.3635 18.7126 23.7546 18.4619 23.2529 17.9605ZM22.0605 32.3925L26.4693 27.9838C26.6005 27.8525 26.6936 27.7047 26.7486 27.5404C26.8032 27.3762 26.8087 27.2063 26.7648 27.0309L26.2621 24.4095C25.3248 25.1629 24.36 25.85 23.3678 26.471C22.3758 27.092 21.3498 27.6674 20.2898 28.1973L22.0605 32.3925ZM34.7056 6.54076C34.896 9.67925 34.4519 12.5665 33.3731 15.2024C32.2945 17.8384 30.6141 20.2974 28.3318 22.5794C28.2224 22.6891 28.1239 22.7877 28.0362 22.8754C27.9485 22.9628 27.85 23.0613 27.7407 23.171L28.4304 26.6765C28.5224 27.1363 28.5049 27.5819 28.3779 28.0132C28.2509 28.4449 28.021 28.8271 27.6882 29.1599L21.466 35.3492L18.634 28.6769L12.5463 22.5893L5.87402 19.7248L12.0535 13.5351C12.3863 13.2023 12.7701 12.9668 13.2049 12.8287C13.6397 12.6909 14.0871 12.668 14.5472 12.7599L18.1181 13.4826C18.2277 13.3732 18.3208 13.2747 18.3974 13.187C18.474 13.0993 18.5671 13.0008 18.6767 12.8915C20.9587 10.6092 23.416 8.93257 26.0486 7.86173C28.6811 6.7906 31.5668 6.35028 34.7056 6.54076ZM8.74189 27.619C9.40985 26.9511 10.2219 26.6209 11.178 26.6286C12.1341 26.6363 12.9461 26.9741 13.6141 27.6421C14.282 28.31 14.6144 29.1221 14.6113 30.0782C14.6079 31.0343 14.2722 31.8463 13.6042 32.5143C13.0237 33.0945 12.0924 33.5916 10.8103 34.0056C9.52786 34.4196 8.04446 34.7055 6.36004 34.8632C6.51778 33.1788 6.80905 31.6955 7.23386 30.4134C7.65895 29.131 8.16162 28.1996 8.74189 27.619ZM9.96078 28.861C9.63221 29.1896 9.32557 29.7255 9.04085 30.469C8.75612 31.2126 8.56778 31.9798 8.47582 32.7705C9.26649 32.6785 10.0337 32.4864 10.7774 32.1939C11.5208 31.9015 12.0568 31.591 12.3853 31.2625C12.727 30.9208 12.9011 30.5134 12.9077 30.0402C12.9142 29.5672 12.7466 29.1599 12.405 28.8183C12.0633 28.4766 11.656 28.3129 11.1831 28.3271C10.7099 28.3414 10.3025 28.5193 9.96078 28.861Z" fill="#1B4878"/>
</g>
</svg>
