<svg width="48" height="49" viewBox="0 0 48 49" fill="none" xmlns="http://www.w3.org/2000/svg">
<rect y="0.298828" width="48" height="48" rx="8" fill="#F3F1EE"/>
<g clip-path="url(#clip0_385_128)">
<path d="M23.7619 13.5093C17.8244 13.5093 13.0098 18.323 13.0098 24.2614C13.0098 29.0119 16.0906 33.0423 20.3627 34.464C20.9001 34.5635 21.0973 34.2307 21.0973 33.9468C21.0973 33.6904 21.0874 32.8434 21.0827 31.9449C18.0915 32.5954 17.4603 30.6763 17.4603 30.6763C16.9712 29.4335 16.2665 29.1031 16.2665 29.1031C15.2909 28.4358 16.34 28.4495 16.34 28.4495C17.4197 28.5253 17.9882 29.5575 17.9882 29.5575C18.9472 31.2012 20.5035 30.726 21.1171 30.4513C21.2136 29.7563 21.4923 29.282 21.7997 29.0135C19.4116 28.7416 16.9011 27.8197 16.9011 23.6998C16.9011 22.5259 17.3211 21.5668 18.0089 20.8138C17.8972 20.543 17.5292 19.4494 18.113 17.9684C18.113 17.9684 19.0159 17.6794 21.0706 19.0705C21.9283 18.8323 22.8481 18.7128 23.7619 18.7087C24.6756 18.7128 25.5961 18.8323 26.4554 19.0705C28.5076 17.6794 29.4092 17.9684 29.4092 17.9684C29.9945 19.4494 29.6263 20.543 29.5147 20.8138C30.2041 21.5668 30.6212 22.5259 30.6212 23.6998C30.6212 27.8295 28.1059 28.7388 25.7117 29.005C26.0973 29.3386 26.441 29.993 26.441 30.9961C26.441 32.4348 26.4285 33.5926 26.4285 33.9468C26.4285 34.2329 26.6221 34.5682 27.1671 34.4626C31.4369 33.0392 34.5138 29.0103 34.5138 24.2614C34.5138 18.323 29.6998 13.5093 23.7619 13.5093ZM17.0368 28.8259C17.0131 28.8793 16.9291 28.8953 16.8525 28.8586C16.7745 28.8235 16.7307 28.7507 16.756 28.6971C16.7791 28.6421 16.8634 28.6268 16.9412 28.6637C17.0193 28.6987 17.0638 28.7723 17.0368 28.8259ZM17.5657 29.2978C17.5144 29.3453 17.4141 29.3232 17.3461 29.2481C17.2758 29.1731 17.2626 29.0729 17.3146 29.0246C17.3675 28.9771 17.4647 28.9994 17.5352 29.0743C17.6055 29.1502 17.6192 29.2497 17.5657 29.2978ZM17.9285 29.9016C17.8626 29.9473 17.7549 29.9044 17.6883 29.8088C17.6224 29.7132 17.6224 29.5985 17.6897 29.5526C17.7565 29.5067 17.8626 29.548 17.9301 29.6429C17.9958 29.7401 17.9958 29.8547 17.9285 29.9016ZM18.5421 30.6009C18.4832 30.6658 18.3577 30.6484 18.2658 30.5597C18.1718 30.473 18.1456 30.35 18.2047 30.285C18.2644 30.2198 18.3906 30.2382 18.4832 30.3261C18.5765 30.4127 18.605 30.5366 18.5421 30.6009ZM19.3352 30.8369C19.3092 30.9211 19.1883 30.9594 19.0665 30.9236C18.9449 30.8868 18.8653 30.7881 18.8899 30.703C18.9152 30.6183 19.0366 30.5784 19.1593 30.6167C19.2807 30.6534 19.3605 30.7513 19.3352 30.8369ZM20.2377 30.9371C20.2407 31.0257 20.1375 31.0993 20.0096 31.1009C19.8811 31.1037 19.7771 31.032 19.7757 30.9447C19.7757 30.8552 19.8766 30.7823 20.0052 30.7802C20.133 30.7777 20.2377 30.8489 20.2377 30.9371ZM21.1243 30.9031C21.1397 30.9896 21.0508 31.0785 20.9239 31.1021C20.799 31.1249 20.6835 31.0715 20.6676 30.9857C20.6522 30.897 20.7426 30.8082 20.8672 30.7852C20.9944 30.7631 21.1081 30.8151 21.1243 30.9031Z" fill="#1B4878"/>
</g>
<defs>
<clipPath id="clip0_385_128">
<rect width="21.504" height="21" fill="white" transform="translate(13.0103 13.5093)"/>
</clipPath>
</defs>
</svg>
