<svg width="163" height="163" viewBox="0 0 163 163" fill="none" xmlns="http://www.w3.org/2000/svg">
<mask id="mask0_965_141" style="mask-type:alpha" maskUnits="userSpaceOnUse" x="0" y="0" width="163" height="163">
<rect width="163" height="163" fill="#D9D9D9"/>
</mask>
<g mask="url(#mask0_965_141)">
<path d="M81.5006 140.588C73.3506 140.588 65.6817 139.032 58.4938 135.919C51.306 132.806 45.052 128.59 39.7318 123.27C34.4117 117.949 30.1952 111.695 27.0824 104.508C23.9695 97.3198 22.4131 89.6508 22.4131 81.5008C22.4131 73.3508 23.9695 65.6819 27.0824 58.4941C30.1952 51.3062 34.4117 45.0522 39.7318 39.7321C45.052 34.4119 51.306 30.1954 58.4938 27.0826C65.6817 23.9698 73.3506 22.4133 81.5006 22.4133C89.6506 22.4133 97.3195 23.9698 104.507 27.0826C111.695 30.1954 117.949 34.4119 123.269 39.7321C128.589 45.0522 132.806 51.3062 135.919 58.4941C139.032 65.6819 140.588 73.3508 140.588 81.5008C140.588 89.6508 139.032 97.3198 135.919 104.508C132.806 111.695 128.589 117.949 123.269 123.27C117.949 128.59 111.695 132.806 104.507 135.919C97.3195 139.032 89.6506 140.588 81.5006 140.588ZM81.5006 136.004C85.802 130.571 89.311 125.307 92.0277 120.213C94.7443 115.12 96.9516 109.347 98.6495 102.895H64.3516C66.2759 109.799 68.5398 115.799 71.1433 120.892C73.7468 125.986 77.1992 131.023 81.5006 136.004ZM75.5579 135.495C72.0489 131.759 68.8228 126.92 65.8798 120.977C62.9367 115.035 60.786 109.007 59.4277 102.895H31.5818C35.6568 112.177 41.5995 119.704 49.41 125.477C57.2204 131.25 65.9364 134.589 75.5579 135.495ZM87.4433 135.495C97.0648 134.589 105.781 131.25 113.591 125.477C121.402 119.704 127.344 112.177 131.419 102.895H103.574C101.649 109.12 99.2155 115.204 96.2725 121.147C93.3294 127.09 90.3863 131.872 87.4433 135.495ZM29.7141 98.1404H58.4089C57.8429 95.1974 57.4468 92.3392 57.2204 89.5659C56.994 86.7927 56.8808 84.1043 56.8808 81.5008C56.8808 78.8974 56.994 76.209 57.2204 73.4357C57.4468 70.6625 57.8429 67.8043 58.4089 64.8612H29.7141C28.9218 67.2383 28.2992 69.8984 27.8464 72.8415C27.3936 75.7845 27.1673 78.671 27.1673 81.5008C27.1673 84.3307 27.3936 87.2171 27.8464 90.1602C28.2992 93.1033 28.9218 95.7633 29.7141 98.1404ZM63.1631 98.1404H99.8381C100.404 95.1974 100.8 92.3958 101.027 89.7357C101.253 87.0757 101.366 84.3307 101.366 81.5008C101.366 78.671 101.253 75.926 101.027 73.2659C100.8 70.6059 100.404 67.8043 99.8381 64.8612H63.1631C62.5971 67.8043 62.2009 70.6059 61.9745 73.2659C61.7482 75.926 61.635 78.671 61.635 81.5008C61.635 84.3307 61.7482 87.0757 61.9745 89.7357C62.2009 92.3958 62.5971 95.1974 63.1631 98.1404ZM104.592 98.1404H133.287C134.079 95.7633 134.702 93.1033 135.155 90.1602C135.608 87.2171 135.834 84.3307 135.834 81.5008C135.834 78.671 135.608 75.7845 135.155 72.8415C134.702 69.8984 134.079 67.2383 133.287 64.8612H104.592C105.158 67.8043 105.554 70.6625 105.781 73.4357C106.007 76.209 106.12 78.8974 106.12 81.5008C106.12 84.1043 106.007 86.7927 105.781 89.5659C105.554 92.3392 105.158 95.1974 104.592 98.1404ZM103.574 60.1071H131.419C127.231 50.5987 121.373 43.0713 113.846 37.5248C106.318 31.9783 97.5176 28.5824 87.4433 27.3373C90.9523 31.6387 94.1218 36.6758 96.9516 42.4487C99.7815 48.2217 101.989 54.1078 103.574 60.1071ZM64.3516 60.1071H98.6495C96.7252 53.3154 94.3764 47.2312 91.6032 41.8545C88.8299 36.4777 85.4624 31.5255 81.5006 26.9977C77.5388 31.5255 74.1712 36.4777 71.398 41.8545C68.6247 47.2312 66.2759 53.3154 64.3516 60.1071ZM31.5818 60.1071H59.4277C61.0124 54.1078 63.2197 48.2217 66.0495 42.4487C68.8794 36.6758 72.0489 31.6387 75.5579 27.3373C65.3704 28.5824 56.5412 32.0066 49.0704 37.6097C41.5995 43.2128 35.77 50.7119 31.5818 60.1071Z" fill="url(#paint0_linear_965_141)"/>
</g>
<defs>
<linearGradient id="paint0_linear_965_141" x1="81.5006" y1="22.4133" x2="81.5006" y2="140.588" gradientUnits="userSpaceOnUse">
<stop stop-color="white" stop-opacity="0.7"/>
<stop offset="1" stop-color="white" stop-opacity="0.4"/>
</linearGradient>
</defs>
</svg>
