<svg width="42" height="41" viewBox="0 0 42 41" fill="none" xmlns="http://www.w3.org/2000/svg">
<mask id="mask0_385_36" style="mask-type:alpha" maskUnits="userSpaceOnUse" x="0" y="0" width="42" height="41">
<rect x="0.5" width="41" height="41" fill="#D9D9D9"/>
</mask>
<g mask="url(#mask0_385_36)">
<path d="M20.491 34.0679C20.7142 34.0679 20.943 34.0175 21.1773 33.9167C21.4117 33.8162 21.6011 33.6937 21.7458 33.549L35.0644 20.2304C35.4934 19.8014 35.8247 19.3623 36.0582 18.9133C36.2914 18.4643 36.408 17.9714 36.408 17.4347C36.408 16.8915 36.2914 16.3642 36.0582 15.8528C35.8247 15.3415 35.4934 14.8744 35.0644 14.4516L28.6581 8.04532C28.2353 7.61625 27.8011 7.30149 27.3555 7.10104C26.9096 6.9006 26.4152 6.80037 25.8723 6.80037C25.3356 6.80037 24.8373 6.9006 24.3775 7.10104C23.9174 7.30149 23.4837 7.61625 23.0766 8.04532L21.5882 9.53371L24.7486 12.7039C25.088 13.0368 25.341 13.4158 25.5075 13.8408C25.6738 14.2656 25.7569 14.697 25.7569 15.1349C25.7569 16.0244 25.4662 16.7598 24.8848 17.3412C24.3034 17.9226 23.5681 18.2133 22.679 18.2133C22.2408 18.2133 21.8131 18.1466 21.396 18.013C20.9789 17.8795 20.6038 17.6462 20.2706 17.313L17.0017 14.0544L9.62643 21.4297C9.4536 21.6028 9.32391 21.7994 9.23736 22.0195C9.1508 22.2396 9.10752 22.4612 9.10752 22.6845C9.10752 23.0876 9.23679 23.42 9.49532 23.6817C9.75356 23.9434 10.0843 24.0742 10.4874 24.0742C10.7107 24.0742 10.9394 24.0238 11.1738 23.923C11.4081 23.8225 11.5976 23.6999 11.7422 23.5553L17.1563 18.1411L18.3654 19.3502L12.9611 24.7644C12.788 24.9372 12.6582 25.1336 12.5716 25.3537C12.4853 25.5738 12.4422 25.7956 12.4422 26.0191C12.4422 26.4004 12.5769 26.7257 12.8462 26.995C13.1156 27.2644 13.4407 27.399 13.8217 27.399C14.0452 27.399 14.2741 27.3486 14.5084 27.2478C14.7427 27.1471 14.9322 27.0243 15.0769 26.8797L20.8852 21.0816L22.0943 22.2903L16.2958 28.0986C16.1446 28.2432 16.0203 28.4327 15.9229 28.667C15.8253 28.9014 15.7764 29.1303 15.7764 29.3538C15.7764 29.7347 15.9111 30.0599 16.1805 30.3293C16.4501 30.5989 16.7754 30.7337 17.1563 30.7337C17.3798 30.7337 17.6016 30.6904 17.8217 30.6039C18.0418 30.5173 18.2383 30.3875 18.4111 30.2144L24.2194 24.4159L25.4285 25.6249L19.6202 31.4333C19.4474 31.6064 19.3177 31.8139 19.2311 32.0559C19.1446 32.298 19.1013 32.5196 19.1013 32.7209C19.1013 33.1241 19.2431 33.4494 19.5266 33.6968C19.8102 33.9442 20.1317 34.0679 20.491 34.0679ZM20.4812 35.7763C19.6028 35.7763 18.851 35.455 18.2258 34.8123C17.6005 34.1694 17.3262 33.3759 17.4028 32.4318C16.4347 32.4429 15.6287 32.1539 14.9846 31.5648C14.3409 30.9754 14.0354 30.153 14.0681 29.0975C13.0126 29.1084 12.181 28.8067 11.5731 28.1926C10.9652 27.5781 10.6887 26.7682 10.7437 25.7629C9.79299 25.774 8.99791 25.5068 8.35842 24.9612C7.71893 24.416 7.39919 23.6571 7.39919 22.6845C7.39919 22.2466 7.48404 21.8081 7.65373 21.369C7.82343 20.9297 8.07469 20.5436 8.40753 20.2108L17.0017 11.6264L21.4139 16.0386C21.5586 16.1898 21.7371 16.3141 21.9495 16.4115C22.1619 16.5088 22.4018 16.5575 22.6691 16.5575C23.0347 16.5575 23.3577 16.43 23.6382 16.1749C23.9186 15.9197 24.0589 15.5873 24.0589 15.1776C24.0589 14.9105 24.01 14.6708 23.9124 14.4584C23.815 14.246 23.6907 14.0675 23.5395 13.9228L17.6624 8.04532C17.2396 7.61625 16.7999 7.30149 16.3432 7.10104C15.8865 6.9006 15.3866 6.80037 14.8437 6.80037C14.307 6.80037 13.8197 6.9006 13.3818 7.10104C12.9436 7.30149 12.5098 7.61625 12.0805 8.04532L6.87986 13.2557C6.51427 13.6216 6.21873 14.0575 5.99323 14.5635C5.76745 15.0694 5.64801 15.5917 5.63491 16.1304C5.62181 16.516 5.6547 16.8867 5.73357 17.2426C5.81243 17.5985 5.93728 17.933 6.10812 18.2462L4.81363 19.5407C4.52663 19.0829 4.30212 18.5556 4.14012 17.9588C3.97811 17.362 3.90366 16.7526 3.91675 16.1304C3.92985 15.3551 4.08531 14.6122 4.38313 13.9015C4.68095 13.1908 5.10703 12.5585 5.66139 12.0044L10.8291 6.83668C11.4247 6.2473 12.055 5.80926 12.7198 5.52254C13.3843 5.23554 14.1033 5.09204 14.8766 5.09204C15.6496 5.09204 16.363 5.23554 17.0167 5.52254C17.6704 5.80926 18.2918 6.2473 18.8809 6.83668L20.3693 8.32463L21.8577 6.83668C22.4533 6.2473 23.078 5.80926 23.7317 5.52254C24.3854 5.23554 25.0989 5.09204 25.8723 5.09204C26.6453 5.09204 27.3642 5.23554 28.029 5.52254C28.6936 5.80926 29.3205 6.2473 29.9099 6.83668L36.2734 13.2002C36.8625 13.7893 37.3169 14.4507 37.6367 15.1844C37.9564 15.9182 38.1163 16.6716 38.1163 17.4446C38.1163 18.2179 37.9564 18.9314 37.6367 19.5851C37.3169 20.2388 36.8625 20.8602 36.2734 21.4493L22.9548 34.7581C22.6001 35.1129 22.214 35.3713 21.7966 35.5333C21.3795 35.6953 20.941 35.7763 20.4812 35.7763Z" fill="#1B4878"/>
</g>
</svg>
