<svg width="48" height="49" viewBox="0 0 48 49" fill="none" xmlns="http://www.w3.org/2000/svg">
<rect y="0.298828" width="48" height="48" rx="8" fill="#F3F1EE"/>
<path fill-rule="evenodd" clip-rule="evenodd" d="M32.0027 32.2332H28.6873V27.3826C28.6873 26.2258 28.6663 24.7378 26.9646 24.7378C25.2398 24.7378 24.9765 25.9985 24.9765 27.2996V32.2332H21.6645V22.2583H24.843V23.6221H24.8885C25.3306 22.8377 26.412 22.0107 28.025 22.0107C31.3823 22.0107 32.0027 24.0761 32.0027 26.7627V32.2332ZM17.9243 20.8956C16.859 20.8956 16.0005 20.0902 16.0005 19.0974C16.0005 18.1052 16.859 17.2998 17.9243 17.2998C18.9848 17.2998 19.8461 18.1052 19.8461 19.0974C19.8461 20.0902 18.9848 20.8956 17.9243 20.8956ZM19.585 32.2317H16.2661V22.2568H19.585V32.2317Z" fill="#1B4878"/>
</svg>
