<svg width="48" height="49" viewBox="0 0 48 49" fill="none" xmlns="http://www.w3.org/2000/svg">
<rect y="0.298828" width="48" height="48" rx="8" fill="#F3F1EE"/>
<path d="M24 16.0982C26.6701 16.0982 26.9864 16.1084 28.0408 16.1565C29.0158 16.201 29.5453 16.3639 29.8977 16.5008C30.3644 16.6822 30.6976 16.8989 31.0475 17.2489C31.3974 17.5988 31.6142 17.9319 31.7955 18.3987C31.9325 18.7511 32.0954 19.2806 32.1399 20.2555C32.188 21.31 32.1982 21.6263 32.1982 24.2964C32.1982 26.9665 32.188 27.2828 32.1399 28.3372C32.0954 29.3122 31.9325 29.8417 31.7955 30.1941C31.6142 30.6609 31.3974 30.994 31.0475 31.3439C30.6976 31.6938 30.3644 31.9106 29.8977 32.092C29.5453 32.2289 29.0158 32.3918 28.0408 32.4363C26.9865 32.4844 26.6703 32.4946 24 32.4946C21.3297 32.4946 21.0134 32.4844 19.9591 32.4363C18.9841 32.3918 18.4547 32.2289 18.1023 32.092C17.6355 31.9106 17.3023 31.6938 16.9524 31.3439C16.6025 30.994 16.3858 30.6609 16.2044 30.1941C16.0675 29.8417 15.9046 29.3122 15.8601 28.3373C15.812 27.2828 15.8018 26.9665 15.8018 24.2964C15.8018 21.6263 15.812 21.31 15.8601 20.2556C15.9046 19.2806 16.0675 18.7511 16.2044 18.3987C16.3858 17.9319 16.6025 17.5988 16.9524 17.2489C17.3023 16.8989 17.6355 16.6822 18.1023 16.5008C18.4547 16.3639 18.9841 16.201 19.9591 16.1565C21.0136 16.1084 21.3299 16.0982 24 16.0982ZM24 14.2964C21.2841 14.2964 20.9436 14.3079 19.877 14.3566C18.8126 14.4051 18.0857 14.5742 17.4496 14.8214C16.792 15.0769 16.2343 15.4189 15.6784 15.9748C15.1225 16.5307 14.7805 17.0884 14.525 17.746C14.2778 18.3821 14.1087 19.109 14.0601 20.1734C14.0115 21.24 14 21.5805 14 24.2964C14 27.0123 14.0115 27.3528 14.0601 28.4194C14.1087 29.4838 14.2778 30.2107 14.525 30.8468C14.7805 31.5043 15.1225 32.0621 15.6784 32.618C16.2343 33.1739 16.792 33.5159 17.4496 33.7714C18.0857 34.0186 18.8126 34.1877 19.877 34.2362C20.9436 34.2849 21.2841 34.2964 24 34.2964C26.7158 34.2964 27.0564 34.2849 28.1229 34.2362C29.1874 34.1877 29.9143 34.0186 30.5504 33.7714C31.208 33.5159 31.7656 33.1739 32.3216 32.618C32.8775 32.0621 33.2194 31.5044 33.475 30.8468C33.7222 30.2107 33.8912 29.4838 33.9398 28.4194C33.9885 27.3528 34 27.0123 34 24.2964C34 21.5805 33.9885 21.24 33.9398 20.1734C33.8912 19.109 33.7222 18.3821 33.475 17.746C33.2194 17.0884 32.8775 16.5307 32.3216 15.9748C31.7656 15.4189 31.208 15.0769 30.5504 14.8214C29.9143 14.5742 29.1874 14.4051 28.1229 14.3566C27.0564 14.3079 26.7158 14.2964 24 14.2964ZM24 19.1612C21.1639 19.1612 18.8648 21.4603 18.8648 24.2964C18.8648 27.1324 21.1639 29.4315 24 29.4315C26.836 29.4315 29.1351 27.1324 29.1351 24.2964C29.1351 21.4603 26.836 19.1612 24 19.1612ZM24 27.6297C22.159 27.6297 20.6666 26.1373 20.6666 24.2964C20.6666 22.4555 22.159 20.963 24 20.963C25.8409 20.963 27.3333 22.4555 27.3333 24.2964C27.3333 26.1373 25.8409 27.6297 24 27.6297ZM30.538 18.9584C30.538 19.6211 30.0008 20.1584 29.338 20.1584C28.6753 20.1584 28.138 19.6211 28.138 18.9584C28.138 18.2956 28.6753 17.7584 29.338 17.7584C30.0008 17.7584 30.538 18.2956 30.538 18.9584Z" fill="#1B4878"/>
</svg>
