<svg width="41" height="41" viewBox="0 0 41 41" fill="none" xmlns="http://www.w3.org/2000/svg">
<mask id="mask0_400_932" style="mask-type:alpha" maskUnits="userSpaceOnUse" x="0" y="0" width="41" height="41">
<rect width="41" height="41" fill="#D9D9D9"/>
</mask>
<g mask="url(#mask0_400_932)">
<path d="M27.1494 32.7838L25.796 31.7617L28.5985 27.9018L24.0415 26.4036L24.5737 24.7576L29.1405 26.2656V21.4528H30.8488V26.2656L35.4152 24.7576L35.9473 26.4036L31.3908 27.9018L34.1933 31.7617L32.8066 32.7838L29.9946 28.8905L27.1494 32.7838ZM9.59331 34.1666C8.80691 34.1666 8.15034 33.9033 7.6236 33.3765C7.09686 32.8498 6.8335 32.1932 6.8335 31.4068V9.59313C6.8335 8.80672 7.09686 8.15015 7.6236 7.62342C8.15034 7.09668 8.80691 6.83331 9.59331 6.83331H31.407C32.1934 6.83331 32.85 7.09668 33.3767 7.62342C33.9035 8.15015 34.1668 8.80672 34.1668 9.59313V18.5222C33.8887 18.3536 33.6128 18.2129 33.3391 18.1002C33.0652 17.9874 32.7717 17.8884 32.4585 17.8029V9.59313C32.4585 9.28648 32.36 9.0345 32.163 8.83719C31.9656 8.64016 31.7137 8.54165 31.407 8.54165H9.59331C9.28666 8.54165 9.03468 8.64016 8.83737 8.83719C8.64034 9.0345 8.54183 9.28648 8.54183 9.59313V24.9681H15.7168C15.995 25.7804 16.433 26.4659 17.031 27.0245C17.6289 27.5829 18.3309 27.9759 19.1369 28.2037C19.1608 28.5104 19.1914 28.8077 19.2287 29.0959C19.266 29.3837 19.3164 29.681 19.3799 29.9876C18.3988 29.8322 17.4981 29.4659 16.6778 28.8888C15.8575 28.3116 15.1824 27.5742 14.6525 26.6765H8.54183V31.4068C8.54183 31.7135 8.64034 31.9655 8.83737 32.1628C9.03468 32.3598 9.28666 32.4583 9.59331 32.4583H20.5625C20.7399 32.7781 20.9184 33.0749 21.0981 33.3488C21.2777 33.6224 21.4869 33.895 21.7255 34.1666H9.59331ZM9.59331 32.4583H8.54183H20.5625H9.59331ZM12.8127 15.0794H28.1877V13.3711H12.8127V15.0794ZM12.8127 20.3356H21.7191C22.0715 19.97 22.4455 19.6448 22.841 19.3601C23.2362 19.0754 23.6496 18.8311 24.0813 18.6272H12.8127V20.3356Z" fill="#1B4878"/>
</g>
</svg>
