<svg width="27" height="27" viewBox="0 0 27 27" fill="none" xmlns="http://www.w3.org/2000/svg">
<rect width="27" height="27" rx="13.5" fill="#1B4878" fill-opacity="0.06"/>
<path fill-rule="evenodd" clip-rule="evenodd" d="M19.6383 18.8171H17.0953V15.0966C17.0953 14.2093 17.0792 13.0679 15.774 13.0679C14.451 13.0679 14.2491 14.0349 14.2491 15.0329V18.8171H11.7087V11.1661H14.1467V12.2122H14.1816C14.5207 11.6105 15.3501 10.9762 16.5873 10.9762C19.1625 10.9762 19.6383 12.5604 19.6383 14.6211V18.8171ZM8.83991 10.1209C8.02278 10.1209 7.36426 9.50313 7.36426 8.74159C7.36426 7.98055 8.02278 7.36279 8.83991 7.36279C9.65327 7.36279 10.3139 7.98055 10.3139 8.74159C10.3139 9.50313 9.65327 10.1209 8.83991 10.1209ZM10.1137 18.8159H7.56799V11.165H10.1137V18.8159Z" fill="#1B4878"/>
</svg>
