<svg width="41" height="41" viewBox="0 0 41 41" fill="none" xmlns="http://www.w3.org/2000/svg">
<mask id="mask0_393_291" style="mask-type:alpha" maskUnits="userSpaceOnUse" x="0" y="0" width="41" height="41">
<rect width="41" height="41" fill="#D9D9D9"/>
</mask>
<g mask="url(#mask0_393_291)">
<path d="M8.5415 23.9167V22.2084H20.4998V23.9167H8.5415ZM8.5415 17.0834V15.375H27.3332V17.0834H8.5415ZM8.5415 10.25V8.54169H27.3332V10.25H8.5415ZM22.6024 32.4584V28.6838L31.7125 19.6164C31.881 19.4475 32.055 19.3337 32.2344 19.2747C32.4138 19.2155 32.5931 19.1859 32.7725 19.1859C32.9681 19.1859 33.1603 19.2226 33.3491 19.2961C33.5381 19.3692 33.7098 19.4793 33.8641 19.6262L35.4443 21.2393C35.5847 21.4079 35.6915 21.5831 35.7647 21.765C35.8381 21.9467 35.8748 22.1283 35.8748 22.31C35.8748 22.4919 35.8398 22.6754 35.7698 22.8605C35.6997 23.0456 35.5913 23.2224 35.4443 23.3909L26.3774 32.4584H22.6024ZM24.1138 30.9473H25.7367L31.66 25.0139L30.8583 24.2024L30.0797 23.3679L24.1138 29.3244V30.9473ZM30.8583 24.2024L30.0797 23.3679L31.66 25.0139L30.8583 24.2024Z" fill="#1B4878"/>
</g>
</svg>
