<svg width="41" height="41" viewBox="0 0 41 41" fill="none" xmlns="http://www.w3.org/2000/svg">
<mask id="mask0_393_299" style="mask-type:alpha" maskUnits="userSpaceOnUse" x="0" y="0" width="41" height="41">
<rect width="41" height="41" fill="#D9D9D9"/>
</mask>
<g mask="url(#mask0_393_299)">
<path d="M29.0418 26.709C27.9468 26.709 27.016 26.3257 26.2496 25.5593C25.4828 24.7928 25.0994 23.862 25.0994 22.767C25.0994 21.672 25.4828 20.7411 26.2496 19.9743C27.016 19.2078 27.9468 18.8246 29.0418 18.8246C30.1369 18.8246 31.0676 19.2078 31.8341 19.9743C32.6009 20.7411 32.9842 21.672 32.9842 22.767C32.9842 23.862 32.6009 24.7928 31.8341 25.5593C31.0676 26.3257 30.1369 26.709 29.0418 26.709ZM29.0418 25.0006C29.6574 25.0006 30.1836 24.7823 30.6203 24.3455C31.0574 23.9085 31.2759 23.3823 31.2759 22.767C31.2759 22.1514 31.0574 21.6253 30.6203 21.1885C30.1836 20.7514 29.6574 20.5329 29.0418 20.5329C28.4263 20.5329 27.9001 20.7514 27.4633 21.1885C27.0263 21.6253 26.8078 22.1514 26.8078 22.767C26.8078 23.3823 27.0263 23.9085 27.4633 24.3455C27.9001 24.7823 28.4263 25.0006 29.0418 25.0006ZM19.9744 36.795V33.0234C19.9744 32.6322 20.0678 32.2642 20.2546 31.9194C20.4414 31.5749 20.7029 31.3001 21.0391 31.0951C21.8301 30.6208 22.6642 30.2274 23.5414 29.9151C24.4189 29.603 25.315 29.3721 26.2295 29.2224L29.0418 32.8855L31.8213 29.2224C32.7464 29.3721 33.6465 29.603 34.5217 29.9151C35.397 30.2274 36.2346 30.6208 37.0347 31.0951C37.3721 31.2987 37.63 31.5708 37.8086 31.9113C37.9871 32.2518 38.0873 32.6116 38.1092 32.9905V36.795H19.9744ZM21.64 35.0866H28.5686L25.5726 31.1506C24.8782 31.3141 24.203 31.5263 23.547 31.7874C22.8913 32.0485 22.2556 32.351 21.64 32.695V35.0866ZM29.515 35.0866H36.4009V32.695C35.7919 32.3445 35.1595 32.0461 34.5038 31.7998C33.8478 31.5532 33.1726 31.3478 32.4781 31.1835L29.515 35.0866ZM9.60868 34.1667C8.83395 34.1667 8.17767 33.8965 7.63983 33.3561C7.10227 32.8157 6.8335 32.166 6.8335 31.4069V9.59319C6.8335 8.83412 7.1037 8.18438 7.6441 7.64398C8.1845 7.10357 8.83424 6.83337 9.59331 6.83337H31.407C32.1661 6.83337 32.8158 7.10357 33.3562 7.64398C33.8966 8.18438 34.1668 8.83412 34.1668 9.59319V15.9008C33.9083 15.6599 33.6455 15.442 33.3784 15.2469C33.1111 15.0519 32.8044 14.9018 32.4585 14.7968V9.59319C32.4585 9.28654 32.36 9.03456 32.163 8.83725C31.9656 8.64022 31.7137 8.54171 31.407 8.54171H9.59331C9.28666 8.54171 9.03468 8.64022 8.83737 8.83725C8.64034 9.03456 8.54183 9.28654 8.54183 9.59319V31.4069C8.54183 31.7135 8.64034 31.9655 8.83737 32.1628C9.03468 32.3599 9.28666 32.4584 9.59331 32.4584H15.303C15.2833 32.5526 15.2685 32.6469 15.2586 32.7411C15.2486 32.8351 15.2436 32.9292 15.2436 33.0234V34.1667H9.60868ZM12.8127 14.9151H25.4936C25.9053 14.6742 26.339 14.499 26.7945 14.3893C27.2501 14.28 27.7145 14.2034 28.1877 14.1596V13.2067H12.8127V14.9151ZM12.8127 21.3542H20.533C20.5769 21.041 20.6354 20.7475 20.7086 20.4736C20.782 20.1999 20.867 19.924 20.9635 19.6459H12.8127V21.3542ZM12.8127 27.7933H17.5896C17.8809 27.559 18.1825 27.3366 18.4946 27.1262C18.8066 26.9161 19.1258 26.7366 19.4521 26.5877V26.085H12.8127V27.7933ZM8.54183 32.4584V8.54171V14.7869V14.0938V32.4584Z" fill="#1B4878"/>
</g>
</svg>
