<svg width="29" height="25" viewBox="0 0 29 25" fill="none" xmlns="http://www.w3.org/2000/svg">
<path d="M0.837891 24.5703V12.3242C0.837891 8.97266 1.85482 6.2513 3.88867 4.16016C5.92253 2.04036 8.57227 0.980469 11.8379 0.980469C12.1243 0.980469 12.2676 1.1237 12.2676 1.41016V6.26562C12.2676 6.55208 12.1243 6.69531 11.8379 6.69531C10.8353 6.69531 9.86133 7.125 8.91602 7.98438C7.99935 8.8151 7.54102 9.94661 7.54102 11.3789C7.54102 11.6654 7.68424 11.8086 7.9707 11.8086H11.8379C12.1243 11.8086 12.2676 11.9518 12.2676 12.2383V24.5703C12.2676 24.8568 12.1243 25 11.8379 25H1.26758C0.98112 25 0.837891 24.8568 0.837891 24.5703ZM16.6934 24.5703V12.3242C16.6934 8.97266 17.7103 6.2513 19.7441 4.16016C21.778 2.04036 24.4277 0.980469 27.6934 0.980469C27.9798 0.980469 28.123 1.1237 28.123 1.41016V6.26562C28.123 6.55208 27.9798 6.69531 27.6934 6.69531C26.6621 6.69531 25.6738 7.125 24.7285 7.98438C23.8118 8.8151 23.3535 9.94661 23.3535 11.3789C23.3535 11.6654 23.5111 11.8086 23.8262 11.8086H27.6934C27.9798 11.8086 28.123 11.9518 28.123 12.2383V24.5703C28.123 24.8568 27.9798 25 27.6934 25H17.123C16.8366 25 16.6934 24.8568 16.6934 24.5703Z" fill="#143150"/>
</svg>
