<svg width="27" height="24" viewBox="0 0 27 24" fill="none" xmlns="http://www.w3.org/2000/svg">
<g clip-path="url(#clip0_817_20)">
<path d="M0 23.5898V11.3437C0 7.99219 1.01693 5.27083 3.05078 3.17969C5.08464 1.05989 7.73438 0 11 0C11.2864 0 11.4297 0.143231 11.4297 0.429691V5.28515C11.4297 5.57161 11.2864 5.71484 11 5.71484C9.99741 5.71484 9.02344 6.14453 8.07813 7.00391C7.16146 7.83463 6.70313 8.96614 6.70313 10.3984C6.70313 10.6849 6.84635 10.8281 7.13281 10.8281H11C11.2864 10.8281 11.4297 10.9713 11.4297 11.2578V23.5898C11.4297 23.8763 11.2864 24.0195 11 24.0195H0.429689C0.143229 24.0195 0 23.8763 0 23.5898ZM15.8555 23.5898V11.3437C15.8555 7.99219 16.8724 5.27083 18.9062 3.17969C20.9401 1.05989 23.5898 0 26.8555 0C27.1419 0 27.2851 0.143231 27.2851 0.429691V5.28515C27.2851 5.57161 27.1419 5.71484 26.8555 5.71484C25.8242 5.71484 24.8359 6.14453 23.8906 7.00391C22.9739 7.83463 22.5156 8.96614 22.5156 10.3984C22.5156 10.6849 22.6732 10.8281 22.9883 10.8281H26.8555C27.1419 10.8281 27.2851 10.9713 27.2851 11.2578V23.5898C27.2851 23.8763 27.1419 24.0195 26.8555 24.0195H16.2851C15.9987 24.0195 15.8555 23.8763 15.8555 23.5898Z" fill="#143150"/>
</g>
<defs>
<clipPath id="clip0_817_20">
<rect width="27" height="24" fill="white"/>
</clipPath>
</defs>
</svg>
