<svg width="41" height="41" viewBox="0 0 41 41" fill="none" xmlns="http://www.w3.org/2000/svg">
<mask id="mask0_400_956" style="mask-type:alpha" maskUnits="userSpaceOnUse" x="0" y="0" width="41" height="41">
<rect width="41" height="41" fill="#D9D9D9"/>
</mask>
<g mask="url(#mask0_400_956)">
<path d="M6.8335 34.1667V25.625H8.54183V31.2493L14.6918 25.0993L15.9009 26.3084L9.7509 32.4584H15.3752V34.1667H6.8335ZM25.6252 34.1667V32.4584H31.2494L25.0994 26.3084L26.3085 25.0993L32.4585 31.2493V25.625H34.1668V34.1667H25.6252ZM14.6918 15.9008L8.54183 9.75078V15.375H6.8335V6.83337H15.3752V8.54171H9.7509L15.9009 14.6917L14.6918 15.9008ZM26.3085 15.9008L25.0994 14.6917L31.2494 8.54171H25.6252V6.83337H34.1668V15.375H32.4585V9.75078L26.3085 15.9008ZM20.5002 22.767C19.8769 22.767 19.3432 22.5451 18.899 22.1012C18.4551 21.657 18.2332 21.1233 18.2332 20.5C18.2332 19.8768 18.4551 19.3431 18.899 18.8989C19.3432 18.455 19.8769 18.2331 20.5002 18.2331C21.1234 18.2331 21.6571 18.455 22.1013 18.8989C22.5452 19.3431 22.7671 19.8768 22.7671 20.5C22.7671 21.1233 22.5452 21.657 22.1013 22.1012C21.6571 22.5451 21.1234 22.767 20.5002 22.767Z" fill="#1B4878"/>
</g>
</svg>
