<svg width="41" height="41" viewBox="0 0 41 41" fill="none" xmlns="http://www.w3.org/2000/svg">
<mask id="mask0_965_101" style="mask-type:alpha" maskUnits="userSpaceOnUse" x="0" y="0" width="41" height="41">
<rect width="41" height="41" fill="#D9D9D9"/>
</mask>
<g mask="url(#mask0_965_101)">
<path d="M22.3036 22.2972C24.7983 20.6281 26.7717 18.7823 28.2238 16.7596C29.6759 14.7369 30.4019 12.7379 30.4019 10.7625C30.4019 9.56667 30.1593 8.61285 29.6742 7.90104C29.189 7.18924 28.5478 6.83333 27.7506 6.83333C26.0838 6.83333 24.6941 7.97607 23.5814 10.2615C22.469 12.547 21.9128 15.3761 21.9128 18.749C21.9128 19.4542 21.9472 20.0998 22.0161 20.6858C22.0851 21.2715 22.1809 21.8086 22.3036 22.2972ZM6.80045 34.1667V31.6699H9.29718V34.1667H6.80045ZM13.0098 34.1667V31.6699H15.5065V34.1667H13.0098ZM19.2188 34.1667V31.6699H21.7155V34.1667H19.2188ZM25.4277 34.1667V31.6699H27.9248V34.1667H25.4277ZM31.6371 34.1667V31.6699H34.1338V34.1667H31.6371ZM6.30119 27.8262L5.125 26.65L7.85833 23.9167L5.125 21.1833L6.30119 20.0071L9.03452 22.7405L11.7679 20.0071L12.944 21.1833L10.2107 23.9167L12.944 26.65L11.7679 27.8262L9.03452 25.0929L6.30119 27.8262ZM25.3098 27.3333C24.4556 27.3333 23.7 27.1313 23.0429 26.7273C22.3857 26.3233 21.8447 25.7182 21.4199 24.9122C20.752 25.3108 20.0517 25.6777 19.3191 26.0128C18.5865 26.3479 17.8324 26.6721 17.0569 26.9853L16.4525 25.3918C17.2059 25.0852 17.9456 24.7572 18.6717 24.4078C19.3977 24.0585 20.0914 23.6877 20.7528 23.2957C20.5666 22.6693 20.4271 21.9696 20.3343 21.1966C20.2412 20.4233 20.1946 19.5877 20.1946 18.69C20.1946 14.6994 20.902 11.4408 22.3168 8.91451C23.7316 6.38817 25.5429 5.125 27.7506 5.125C29.056 5.125 30.1074 5.6402 30.9046 6.67061C31.7018 7.70102 32.1004 9.07808 32.1004 10.8018C32.1004 13.1411 31.2752 15.4681 29.6246 17.7829C27.9744 20.098 25.7355 22.1656 22.9079 23.9859C23.1949 24.5354 23.5437 24.9476 23.9543 25.2227C24.3651 25.4974 24.8268 25.6348 25.3393 25.6348C26.2547 25.6348 27.2254 25.1979 28.2516 24.3241C29.2777 23.4503 30.2003 22.2774 31.0195 20.8054L32.4946 21.5019C32.3389 22.4022 32.2808 23.194 32.3204 23.8774C32.3597 24.5607 32.5492 25.1477 32.8888 25.6382C33.261 25.452 33.6174 25.2374 33.9583 24.9942C34.2988 24.751 34.7121 24.3403 35.1981 23.7621L36.5421 24.8366C35.8018 25.6427 35.1174 26.2602 34.4887 26.6893C33.86 27.1187 33.2642 27.3333 32.7013 27.3333C32.1911 27.3333 31.7504 27.0459 31.3791 26.4711C31.0078 25.8962 30.7533 25.1729 30.6155 24.301C29.9276 25.2318 29.0942 25.9699 28.1153 26.5155C27.1362 27.0607 26.201 27.3333 25.3098 27.3333Z" fill="#1B4878"/>
</g>
</svg>
