<svg width="41" height="41" viewBox="0 0 41 41" fill="none" xmlns="http://www.w3.org/2000/svg">
<mask id="mask0_400_940" style="mask-type:alpha" maskUnits="userSpaceOnUse" x="0" y="0" width="41" height="41">
<rect width="41" height="41" fill="#D9D9D9"/>
</mask>
<g mask="url(#mask0_400_940)">
<path d="M23.0988 18.8771L17.0539 12.8321L18.2728 11.6559L23.0988 16.482L32.7936 6.8299L33.9694 8.00608L23.0988 18.8771ZM11.9583 31.8668L24.8827 35.6384L35.1127 32.478C35.0799 31.9589 34.9229 31.5849 34.6416 31.356C34.36 31.1271 34.0484 31.0126 33.7067 31.0126H25.6054C24.8805 31.0126 24.2245 30.9842 23.6374 30.9272C23.0505 30.8703 22.4494 30.7346 21.8338 30.5202L18.0921 29.2945L18.6699 27.6058L22.1293 28.8576C22.6791 29.0657 23.3034 29.1906 24.0021 29.2321C24.7008 29.2737 25.6579 29.2978 26.8734 29.3043C26.8734 28.7722 26.7754 28.3418 26.5795 28.0132C26.3834 27.6847 26.1025 27.4559 25.7369 27.3269L15.9071 23.7193C15.8414 23.6977 15.7812 23.6813 15.7265 23.6702C15.6718 23.6594 15.6116 23.654 15.5458 23.654H11.9583V31.8668ZM5.125 35.875V21.9457H15.5129C15.6684 21.9457 15.8294 21.9615 15.996 21.9931C16.1623 22.025 16.32 22.0694 16.4692 22.1263L26.3412 25.7433C26.9522 25.9753 27.4784 26.3926 27.9197 26.9951C28.361 27.5973 28.5817 28.367 28.5817 29.3043H33.7067C34.736 29.3043 35.5245 29.6263 36.0723 30.2704C36.6198 30.9141 36.8936 31.731 36.8936 32.721V33.7725L24.9681 37.4518L11.9583 33.6606V35.875H5.125ZM6.83333 34.1667H10.25V23.654H6.83333V34.1667Z" fill="#1B4878"/>
</g>
</svg>
