<svg width="41" height="41" viewBox="0 0 41 41" fill="none" xmlns="http://www.w3.org/2000/svg">
<mask id="mask0_400_964" style="mask-type:alpha" maskUnits="userSpaceOnUse" x="0" y="0" width="41" height="41">
<rect width="41" height="41" fill="#D9D9D9"/>
</mask>
<g mask="url(#mask0_400_964)">
<path d="M20.1058 34.1667V32.4584H31.4069C31.6916 32.4584 31.938 32.3708 32.1461 32.1957C32.3543 32.0203 32.4583 31.7903 32.4583 31.5056V19.7377C32.4583 16.538 31.2817 13.8654 28.9285 11.7201C26.575 9.57496 23.7655 8.50242 20.5 8.50242C17.2345 8.50242 14.425 9.57496 12.0715 11.7201C9.71828 13.8654 8.54167 16.538 8.54167 19.7377V29.4359H7.6875C6.98879 29.4359 6.38703 29.1999 5.88222 28.7278C5.37741 28.256 5.125 27.6708 5.125 26.9721V23.7523C5.125 23.2421 5.29085 22.7894 5.62255 22.3942C5.95454 21.9987 6.35813 21.6772 6.83333 21.4298L6.8628 19.3307C6.91548 17.5478 7.31907 15.8964 8.07358 14.3765C8.8281 12.8564 9.82135 11.5334 11.0533 10.4076C12.2853 9.28184 13.7166 8.40476 15.3472 7.77637C16.9778 7.14771 18.6954 6.83337 20.5 6.83337C22.3046 6.83337 24.0206 7.14771 25.6481 7.77637C27.2752 8.40476 28.7066 9.28028 29.942 10.4029C31.1771 11.5253 32.1703 12.8464 32.9217 14.3663C33.6728 15.8864 34.078 17.5378 34.1372 19.3204L34.1667 21.3773C34.6199 21.5897 35.018 21.8755 35.3608 22.2349C35.7036 22.5939 35.875 23.0252 35.875 23.5289V27.2283C35.875 27.732 35.7036 28.1635 35.3608 28.5228C35.018 28.8818 34.6199 29.1676 34.1667 29.38V31.5056C34.1667 32.2481 33.8979 32.8772 33.3603 33.3928C32.8225 33.9087 32.1713 34.1667 31.4069 34.1667H20.1058ZM16.0319 23.1283C15.6794 23.1283 15.3723 23.0084 15.1106 22.7687C14.849 22.5287 14.7181 22.2324 14.7181 21.8799C14.7181 21.5272 14.849 21.2255 15.1106 20.975C15.3723 20.7241 15.6794 20.5987 16.0319 20.5987C16.3846 20.5987 16.6918 20.7241 16.9535 20.975C17.2152 21.2255 17.346 21.5272 17.346 21.8799C17.346 22.2324 17.2152 22.5287 16.9535 22.7687C16.6918 23.0084 16.3846 23.1283 16.0319 23.1283ZM24.9681 23.1283C24.6154 23.1283 24.3082 23.0084 24.0465 22.7687C23.7848 22.5287 23.654 22.2324 23.654 21.8799C23.654 21.5272 23.7848 21.2255 24.0465 20.975C24.3082 20.7241 24.6154 20.5987 24.9681 20.5987C25.3206 20.5987 25.6277 20.7241 25.8894 20.975C26.151 21.2255 26.2819 21.5272 26.2819 21.8799C26.2819 22.2324 26.151 22.5287 25.8894 22.7687C25.6277 23.0084 25.3206 23.1283 24.9681 23.1283ZM11.4753 20.4146C11.3198 17.8564 12.1434 15.6761 13.946 13.8738C15.7486 12.0713 17.9617 11.17 20.5854 11.17C22.7909 11.17 24.7451 11.832 26.448 13.1559C28.1509 14.4799 29.1907 16.2194 29.5674 18.3744C27.305 18.346 25.2052 17.7688 23.2679 16.6431C21.3307 15.5173 19.844 13.9513 18.8079 11.9451C18.3962 13.9163 17.5393 15.6438 16.2373 17.1278C14.9352 18.6115 13.3479 19.7071 11.4753 20.4146Z" fill="#1B4878"/>
</g>
</svg>
