<svg width="48" height="49" viewBox="0 0 48 49" fill="none" xmlns="http://www.w3.org/2000/svg">
<rect y="0.298828" width="48" height="48" rx="8" fill="#F3F1EE"/>
<path fill-rule="evenodd" clip-rule="evenodd" d="M32 19.7197C31.4115 19.9605 30.7785 20.1234 30.1145 20.1968C30.7925 19.8216 31.313 19.2282 31.558 18.5208C30.924 18.8678 30.221 19.1198 29.4735 19.2559C28.8745 18.6671 28.0215 18.2993 27.0775 18.2993C25.2645 18.2993 23.795 19.6555 23.795 21.3287C23.795 21.5659 23.824 21.7971 23.88 22.0191C21.1515 21.8926 18.733 20.6864 17.114 18.8535C16.8315 19.3011 16.6695 19.8216 16.6695 20.3768C16.6695 21.4275 17.249 22.355 18.1295 22.8981C17.5915 22.8824 17.0855 22.7463 16.643 22.5192C16.6425 22.5322 16.6425 22.5446 16.6425 22.5575C16.6425 24.0254 17.774 25.2496 19.276 25.5279C19.0005 25.5971 18.7105 25.634 18.411 25.634C18.1995 25.634 17.994 25.6151 17.7935 25.58C18.211 26.7835 19.4235 27.6593 20.86 27.6838C19.7365 28.4964 18.321 28.9805 16.783 28.9805C16.518 28.9805 16.257 28.9661 16 28.9385C17.4525 29.7977 19.178 30.2993 21.032 30.2993C27.07 30.2993 30.3715 25.6829 30.3715 21.6799C30.3715 21.5484 30.3685 21.4178 30.362 21.2877C31.0035 20.8608 31.56 20.3274 32 19.7197Z" fill="#1B4878"/>
</svg>
