<svg width="136" height="54" viewBox="0 0 136 54" fill="none" xmlns="http://www.w3.org/2000/svg">
<g clip-path="url(#clip0_882_76)">
<g clip-path="url(#clip1_882_76)">
<path fill-rule="evenodd" clip-rule="evenodd" d="M38.8297 13.5605C38.5654 13.8255 35.9668 13.9864 33.056 13.919L27.7631 13.7959L27.7112 25.5963C27.6823 32.0862 27.5263 38.1087 27.3639 38.9782C27.0827 40.4859 27.2809 40.5597 31.6333 40.5597H36.198V32.6331C36.198 23.0673 36.87 21.5813 41.1935 21.5813H44.0002L43.7894 17.5396C43.5841 13.6062 43.5209 13.4923 41.4445 13.2892C40.2706 13.1739 39.094 13.2962 38.8297 13.5605ZM46.0387 27.2046V40.5597H50.2561H54.4735V27.2046V13.8494H50.2561H46.0387V27.2046ZM57.988 17.3505C57.988 20.4897 58.168 20.8967 59.7291 21.2882C60.6865 21.5286 62.9006 21.6115 64.6495 21.4724C66.3976 21.3332 67.8287 21.2896 67.8287 21.3761C67.8287 21.5096 62.2153 31.0094 57.8426 38.2753L56.4676 40.5597H68.4002H80.3334L80.6082 37.6771C81.0131 33.433 80.2174 32.7807 75.0335 33.1083C72.6176 33.2615 70.6403 33.2024 70.6403 32.9782C70.6403 32.754 72.8545 28.5527 75.5607 23.6415C78.2668 18.731 80.481 14.5185 80.481 14.281C80.481 14.0434 75.4201 13.8494 69.2345 13.8494H57.988V17.3505ZM82.5897 17.3505C82.5897 21.3472 83.1696 21.7085 89.0916 21.4028C90.9283 21.3079 92.4304 21.3374 92.4304 21.4689C92.4304 21.8013 84.0679 35.56 82.4323 37.9189C81.6963 38.9796 81.2422 40.0867 81.4222 40.3791C81.6021 40.6715 87.0405 40.753 93.5072 40.5597L105.265 40.2083L105.35 36.8688C105.396 35.0321 105.118 33.5103 104.731 33.4864C104.345 33.4625 102.052 33.4323 99.6351 33.4196C97.1131 33.4056 95.242 33.0879 95.242 32.6732C95.242 32.276 96.6654 29.6071 98.4051 26.7413C100.145 23.8763 101.568 21.3543 101.568 21.1378C101.568 20.9213 102.159 19.9042 102.882 18.8779C103.604 17.8517 104.416 16.3004 104.686 15.4309L105.178 13.8494H93.8833H82.5897V17.3505ZM110.16 33.9222C108.304 35.2212 108.062 38.5185 109.701 40.1584C111.382 41.8383 115.325 41.5782 116.641 39.7001C118.142 37.5569 118.02 36.5637 116.009 34.5534C114.015 32.5586 112.361 32.38 110.16 33.9222Z" fill="#434343"/>
</g>
</g>
<defs>
<clipPath id="clip0_882_76">
<rect width="136" height="32" fill="white" transform="translate(0 11.473)"/>
</clipPath>
<clipPath id="clip1_882_76">
<rect width="182" height="32" fill="white" transform="translate(-19 11.473)"/>
</clipPath>
</defs>
</svg>
