<svg width="137" height="32" viewBox="0 0 137 32" fill="none" xmlns="http://www.w3.org/2000/svg">
<g clip-path="url(#clip0_334_78)">
<g clip-path="url(#clip1_334_78)">
<path fill-rule="evenodd" clip-rule="evenodd" d="M39.5497 2.08745C39.2854 2.35245 36.6867 2.51341 33.776 2.44593L28.4831 2.32293L28.4311 14.1233C28.4023 20.6132 28.2462 26.6357 28.0839 27.5052C27.8027 29.0129 28.0009 29.0867 32.3533 29.0867H36.918V21.1601C36.918 11.5942 37.5899 10.1083 41.9135 10.1083H44.7202L44.5093 6.06659C44.3041 2.13314 44.2408 2.01927 42.1644 1.81613C40.9906 1.70085 39.814 1.82316 39.5497 2.08745ZM46.7586 15.7315V29.0867H50.9761H55.1935V15.7315V2.37635H50.9761H46.7586V15.7315ZM58.708 5.87751C58.708 9.01668 58.888 9.42367 60.4491 9.81518C61.4065 10.0556 63.6206 10.1385 65.3694 9.99935C67.1176 9.86017 68.5487 9.81659 68.5487 9.90305C68.5487 10.0366 62.9353 19.5364 58.5625 26.8023L57.1876 29.0867H69.1201H81.0533L81.3282 26.2041C81.7331 21.96 80.9374 21.3077 75.7535 21.6352C73.3376 21.7885 71.3603 21.7294 71.3603 21.5052C71.3603 21.281 73.5744 17.0797 76.2806 12.1685C78.9868 7.25802 81.201 3.04551 81.201 2.80793C81.201 2.57035 76.14 2.37635 69.9545 2.37635H58.708V5.87751ZM83.3097 5.87751C83.3097 9.87423 83.8896 10.2355 89.8115 9.92976C91.6482 9.83486 93.1503 9.86439 93.1503 9.99583C93.1503 10.3283 84.7879 24.087 83.1522 26.4459C82.4163 27.5066 81.9622 28.6137 82.1421 28.9061C82.3221 29.1985 87.7605 29.28 94.2272 29.0867L105.985 28.7353L106.07 25.3958C106.116 23.5591 105.838 22.0373 105.451 22.0134C105.065 21.9895 102.772 21.9593 100.355 21.9466C97.8331 21.9326 95.962 21.6148 95.962 21.2001C95.962 20.803 97.3853 18.1341 99.125 15.2683C100.865 12.4033 102.288 9.88126 102.288 9.66476C102.288 9.44827 102.879 8.43117 103.602 7.40492C104.324 6.37868 105.136 4.82737 105.406 3.95788L105.898 2.37635H94.6033H83.3097V5.87751ZM110.88 22.4492C109.024 23.7482 108.782 27.0455 110.421 28.6854C112.102 30.3653 116.045 30.1052 117.36 28.2271C118.862 26.0839 118.74 25.0907 116.729 23.0804C114.735 21.0856 113.081 20.907 110.88 22.4492Z" fill="#434343"/>
</g>
</g>
<defs>
<clipPath id="clip0_334_78">
<rect width="136" height="32" fill="white" transform="translate(0.719971)"/>
</clipPath>
<clipPath id="clip1_334_78">
<rect width="182" height="32" fill="white" transform="translate(-18.28)"/>
</clipPath>
</defs>
</svg>
