<svg width="101" height="54" viewBox="0 0 101 54" fill="none" xmlns="http://www.w3.org/2000/svg">
<g clip-path="url(#clip0_882_40)">
<path d="M29.2543 37.561V17.288C29.2543 16.7936 29.6806 16.3698 30.1781 16.3698H46.8055C47.7292 16.3698 48.0846 17.6412 47.1608 18.065L37.8523 22.5152C37.0706 22.8684 37.2127 23.9986 37.9944 24.2105L46.5213 26.4709C47.3739 26.6828 47.445 27.9543 46.5213 28.1662L37.8523 30.7798C37.0706 30.9917 36.9995 32.1219 37.7101 32.4751L47.0186 36.8546C47.8714 37.2785 47.5871 38.5499 46.6633 38.5499H30.107C29.6806 38.4793 29.2543 38.0554 29.2543 37.561Z" fill="#EDFF8C" stroke="#284218" stroke-width="2" stroke-miterlimit="10"/>
<path d="M77.5729 37.6897V17.8405C77.5729 17.0635 78.4256 16.569 79.0652 16.9222L93.9165 24.8336C94.4846 25.1161 95.124 24.9043 95.3377 24.2685L98.1089 16.9929C98.5345 15.9333 100.098 16.2159 100.098 17.346V37.5484C100.098 38.3253 99.2451 38.8198 98.6058 38.4666L83.897 30.9084C83.3285 30.6259 82.6891 30.8378 82.4759 31.4029L79.6335 38.1135C79.1362 39.173 77.5729 38.8198 77.5729 37.6897Z" fill="#EDFF8C" stroke="#284218" stroke-width="2" stroke-miterlimit="10"/>
<path d="M0.901794 37.6897V17.8405C0.901794 17.0635 1.75449 16.569 2.394 16.9222L17.245 24.8336C17.8134 25.1161 18.453 24.9043 18.6662 24.2685L21.4374 16.9929C21.9348 15.9333 23.4981 16.2159 23.4981 17.346V37.5484C23.4981 38.3253 22.6454 38.8198 22.0058 38.4666L7.22591 30.9084C6.65745 30.6259 6.01793 30.8378 5.80476 31.4029L2.96247 38.1135C2.46506 39.173 0.901794 38.8198 0.901794 37.6897Z" fill="#EDFF8C" stroke="#284218" stroke-width="2" stroke-miterlimit="10"/>
<path d="M62.2949 39.104C68.7702 39.104 74.0194 33.8857 74.0194 27.4488C74.0194 21.0118 68.7702 15.7936 62.2949 15.7936C55.8197 15.7936 50.5704 21.0118 50.5704 27.4488C50.5704 33.8857 55.8197 39.104 62.2949 39.104Z" fill="#EDFF8C" stroke="#284218" stroke-width="2" stroke-miterlimit="10"/>
</g>
<defs>
<clipPath id="clip0_882_40">
<rect width="101" height="26" fill="white" transform="translate(0 14.5)"/>
</clipPath>
</defs>
</svg>
