<svg width="117" height="36" viewBox="0 0 117 36" fill="none" xmlns="http://www.w3.org/2000/svg">
<g clip-path="url(#clip0_334_69)">
<path d="M0 28.8794H4.01778L5.71701 24.3964H14.6101L16.2935 28.8794H20.2954L11.5451 7.40424H8.75022L0 28.8794ZM6.92393 21.2075L10.1795 12.6112L13.4032 21.2075H6.92393Z" fill="#1D1D1F"/>
<path d="M20.9663 28.8794H24.4918V21.5001C24.4918 17.9415 25.7464 16.3701 28.1126 16.3701C30.2089 16.3701 31.2252 17.6025 31.2252 20.3139V28.8794H34.7665V19.0507C34.7665 15.4304 32.6544 13.4123 29.1607 13.4123C27.3185 13.4123 25.5399 14.0747 24.4918 15.6615V13.6896H20.9663V28.8794Z" fill="#1D1D1F"/>
<path d="M47.0613 28.8794H50.3009V19.3126C50.3009 15.6153 47.8235 13.4123 43.5993 13.4123C40.8996 13.4123 38.3746 14.2904 36.5483 16.2777L39.1051 18.3574C40.5026 16.8785 41.8366 16.3701 43.3452 16.3701C45.6003 16.3701 46.8072 17.4793 46.8072 19.3126V19.7439H42.17C40.6773 19.7439 39.3116 19.9904 38.2475 20.6066C37.0565 21.2998 36.2625 22.5169 36.2625 24.2423C36.2625 27.2001 38.6922 29.1566 42.2018 29.1566C44.0757 29.1566 45.7749 28.525 46.8707 26.9382L47.0613 28.8794ZM39.8038 24.2577C39.8038 23.6107 40.0579 23.1177 40.5185 22.7942C41.0902 22.409 41.916 22.2858 42.6782 22.2858H46.8072V22.5785C46.8072 24.7969 44.9015 26.399 42.6465 26.399C40.8996 26.399 39.8038 25.5672 39.8038 24.2577Z" fill="#1D1D1F"/>
<path d="M55.9525 29.1567C56.6195 29.1567 57.5088 29.018 58.3505 28.7099V25.7983C57.9058 25.9216 57.4929 26.014 57.1277 26.014C56.3972 26.014 55.9208 25.6289 55.9208 24.6583V7.40424H52.4111V25.3207C52.4111 27.9859 53.9039 29.1567 55.9525 29.1567Z" fill="#1D1D1F"/>
<path d="M66.4795 29.1566C70.9419 29.1566 74.245 25.8291 74.245 21.2691C74.245 16.6937 70.9734 13.4123 66.4795 13.4123C61.9218 13.4123 58.6663 16.6937 58.6663 21.2691C58.6663 25.8599 61.9694 29.1566 66.4795 29.1566ZM62.1917 21.2691C62.1917 18.2496 63.8115 16.401 66.4795 16.401C69.0998 16.401 70.7036 18.2342 70.7036 21.2691C70.7036 24.2885 69.0998 26.1526 66.4795 26.1526C63.8274 26.1526 62.1917 24.2885 62.1917 21.2691Z" fill="#1D1D1F"/>
<path d="M82.2568 35.4729C86.7508 35.4729 89.3711 33.8708 89.3711 30.9283C89.3711 27.7394 86.3378 27.2156 82.2568 26.6302C79.4296 26.2451 78.4295 25.9832 78.4295 24.8894C78.4295 24.4734 78.6042 24.15 78.9215 23.8726C79.8266 24.2578 80.875 24.4734 82.0499 24.4734C85.7185 24.4734 88.2591 22.3475 88.2591 19.097C88.2591 18.111 88.0215 17.2175 87.6084 16.4627L89.9903 14.5215L88.1801 12.3956L85.6235 14.4137C84.5751 13.7667 83.2891 13.4124 81.9234 13.4124C78.477 13.4124 75.6023 15.6461 75.6023 18.9891C75.6023 20.3756 76.0951 21.5926 76.968 22.5169C75.9839 23.2256 75.3486 24.1653 75.3486 25.4132C75.3486 26.9383 76.079 27.8626 77.2224 28.4789L74.9195 30.0194C74.8244 30.4199 74.8083 30.6048 74.8083 30.7588C74.8083 33.7783 77.365 35.4729 82.2568 35.4729ZM78.2547 30.6202L79.3982 29.2183C80.0174 29.357 80.6842 29.4494 81.3517 29.5419C84.1306 29.9116 85.8772 30.0965 85.8772 31.3443C85.8772 32.4381 84.3528 32.9156 82.3204 32.9156C80.0013 32.9156 78.3659 32.2686 78.2708 30.8975C78.2547 30.8205 78.2387 30.7897 78.2547 30.6202ZM79.1284 18.9275C79.1284 17.3562 80.2397 16.2007 81.9709 16.2007C83.67 16.2007 84.7498 17.3253 84.7498 18.9429C84.7498 20.4989 83.7972 21.7313 81.9709 21.7313C80.1285 21.7313 79.1284 20.4989 79.1284 18.9275Z" fill="#1D1D1F"/>
<path d="M92.0083 35.1494H95.8195L104.84 13.6896H101.029L96.9951 24.4427L93.0091 13.6896H89.1497L95.1212 27.8627L92.0083 35.1494Z" fill="#1D1D1F"/>
<path d="M99.7382 0.526804L116.287 0.526794V16.5796L116.284 16.5809L108.042 24.5776V8.56768L91.4497 8.56761L99.7354 0.528416L99.7382 0.531143V0.526804Z" fill="#1D1D1F"/>
</g>
<defs>
<clipPath id="clip0_334_69">
<rect width="116.72" height="34.9461" fill="white" transform="translate(0 0.526978)"/>
</clipPath>
</defs>
</svg>
