<svg width="116" height="54" viewBox="0 0 116 54" fill="none" xmlns="http://www.w3.org/2000/svg">
<g clip-path="url(#clip0_882_58)">
<g clip-path="url(#clip1_882_58)">
<path d="M0 38.3525H4.01778L5.71701 33.8695H14.6101L16.2935 38.3525H20.2954L11.5451 16.8773H8.75022L0 38.3525ZM6.92393 30.6806L10.1795 22.0843L13.4032 30.6806H6.92393Z" fill="#1D1D1F"/>
<path d="M20.9663 38.3523H24.4918V30.9731C24.4918 27.4145 25.7464 25.8431 28.1126 25.8431C30.2089 25.8431 31.2252 27.0755 31.2252 29.7869V38.3523H34.7665V28.5237C34.7665 24.9034 32.6544 22.8853 29.1607 22.8853C27.3185 22.8853 25.5399 23.5477 24.4918 25.1345V23.1625H20.9663V38.3523Z" fill="#1D1D1F"/>
<path d="M47.0613 38.3523H50.3009V28.7856C50.3009 25.0883 47.8236 22.8853 43.5994 22.8853C40.8997 22.8853 38.3747 23.7634 36.5484 25.7507L39.1052 27.8304C40.5027 26.3515 41.8366 25.8431 43.3452 25.8431C45.6003 25.8431 46.8072 26.9523 46.8072 28.7856V29.2169H42.1701C40.6773 29.2169 39.3116 29.4634 38.2476 30.0796C37.0566 30.7728 36.2625 31.9898 36.2625 33.7153C36.2625 36.6731 38.6922 38.6296 42.2019 38.6296C44.0758 38.6296 45.775 37.998 46.8708 36.4112L47.0613 38.3523ZM39.8039 33.7307C39.8039 33.0836 40.058 32.5907 40.5185 32.2672C41.0902 31.882 41.916 31.7588 42.6783 31.7588H46.8072V32.0515C46.8072 34.2699 44.9015 35.872 42.6465 35.872C40.8997 35.872 39.8039 35.0401 39.8039 33.7307Z" fill="#1D1D1F"/>
<path d="M55.9525 38.6298C56.6195 38.6298 57.5088 38.4911 58.3505 38.183V35.2714C57.9058 35.3947 57.4929 35.4871 57.1277 35.4871C56.3972 35.4871 55.9208 35.102 55.9208 34.1314V16.8773H52.4111V34.7938C52.4111 37.4589 53.9039 38.6298 55.9525 38.6298Z" fill="#1D1D1F"/>
<path d="M66.4796 38.6296C70.942 38.6296 74.2451 35.302 74.2451 30.742C74.2451 26.1666 70.9734 22.8853 66.4796 22.8853C61.9218 22.8853 58.6663 26.1666 58.6663 30.742C58.6663 35.3328 61.9694 38.6296 66.4796 38.6296ZM62.1918 30.742C62.1918 27.7226 63.8116 25.8739 66.4796 25.8739C69.0998 25.8739 70.7036 27.7071 70.7036 30.742C70.7036 33.7615 69.0998 35.6256 66.4796 35.6256C63.8275 35.6256 62.1918 33.7615 62.1918 30.742Z" fill="#1D1D1F"/>
<path d="M82.2568 44.9459C86.7509 44.9459 89.3712 43.3437 89.3712 40.4013C89.3712 37.2124 86.3378 36.6886 82.2568 36.1032C79.4297 35.718 78.4295 35.4561 78.4295 34.3624C78.4295 33.9464 78.6043 33.6229 78.9216 33.3456C79.8267 33.7308 80.8751 33.9464 82.0499 33.9464C85.7186 33.9464 88.2592 31.8205 88.2592 28.5699C88.2592 27.584 88.0215 26.6905 87.6085 25.9356L89.9904 23.9945L88.1802 21.8685L85.6235 23.8867C84.5752 23.2397 83.2891 22.8853 81.9234 22.8853C78.4771 22.8853 75.6024 25.1191 75.6024 28.4621C75.6024 29.8485 76.0951 31.0656 76.9681 31.9899C75.984 32.6986 75.3487 33.6383 75.3487 34.8862C75.3487 36.4113 76.0791 37.3356 77.2225 37.9518L74.9195 39.4923C74.8245 39.8929 74.8084 40.0778 74.8084 40.2318C74.8084 43.2513 77.3651 44.9459 82.2568 44.9459ZM78.2548 40.0932L79.3982 38.6913C80.0175 38.83 80.6843 38.9224 81.3517 39.0148C84.1306 39.3846 85.8772 39.5694 85.8772 40.8172C85.8772 41.911 84.3529 42.3886 82.3204 42.3886C80.0014 42.3886 78.3659 41.7415 78.2709 40.3705C78.2548 40.2934 78.2387 40.2626 78.2548 40.0932ZM79.1284 28.4004C79.1284 26.8291 80.2397 25.6737 81.971 25.6737C83.67 25.6737 84.7499 26.7983 84.7499 28.4159C84.7499 29.9718 83.7972 31.2042 81.971 31.2042C80.1286 31.2042 79.1284 29.9718 79.1284 28.4004Z" fill="#1D1D1F"/>
<path d="M92.0083 44.6225H95.8195L104.84 23.1627H101.029L96.9951 33.9158L93.0092 23.1627H89.1497L95.1213 37.3357L92.0083 44.6225Z" fill="#1D1D1F"/>
<path d="M99.7384 9.99977L116.287 9.99976V26.0526L116.284 26.0539L108.042 34.0506V18.0406L91.4498 18.0406L99.7356 10.0014L99.7384 10.0041V9.99977Z" fill="#1D1D1F"/>
</g>
</g>
<defs>
<clipPath id="clip0_882_58">
<rect width="116" height="54" fill="white"/>
</clipPath>
<clipPath id="clip1_882_58">
<rect width="116.72" height="34.9461" fill="white" transform="translate(0 10)"/>
</clipPath>
</defs>
</svg>
